<svg width="1052" height="509" viewBox="0 0 1052 509" fill="none" xmlns="http://www.w3.org/2000/svg">
<path d="M33.7189 361.426V325.205L193.52 72.3636H219.798V128.472H202.043L81.3042 319.523V322.364H296.503V361.426H33.7189ZM204.884 436V350.418V333.55V72.3636H246.787V436H204.884Z" fill="black"/>
<path d="M526 440.972C499.248 440.972 476.462 433.692 457.641 419.132C438.82 404.454 424.438 383.206 414.494 355.389C404.551 327.454 399.58 293.718 399.58 254.182C399.58 214.883 404.551 181.324 414.494 153.507C424.556 125.571 438.997 104.265 457.818 89.5866C476.758 74.7902 499.485 67.392 526 67.392C552.515 67.392 575.183 74.7902 594.004 89.5866C612.944 104.265 627.385 125.571 637.328 153.507C647.39 181.324 652.42 214.883 652.42 254.182C652.42 293.718 647.449 327.454 637.506 355.389C627.562 383.206 613.18 404.454 594.359 419.132C575.538 433.692 552.752 440.972 526 440.972ZM526 401.909C552.515 401.909 573.112 389.125 587.79 363.557C602.468 337.989 609.807 301.53 609.807 254.182C609.807 222.695 606.433 195.884 599.686 173.749C593.057 151.613 583.469 134.745 570.922 123.145C558.493 111.545 543.519 105.744 526 105.744C499.722 105.744 479.184 118.706 464.388 144.629C449.591 170.434 442.193 206.952 442.193 254.182C442.193 285.669 445.508 312.42 452.136 334.438C458.765 356.455 468.294 373.204 480.723 384.686C493.27 396.168 508.363 401.909 526 401.909Z" fill="black"/>
<path d="M755.719 361.426V325.205L915.52 72.3636H941.798V128.472H924.043L803.304 319.523V322.364H1018.5V361.426H755.719ZM926.884 436V350.418V333.55V72.3636H968.787V436H926.884Z" fill="black"/>
<path d="M525 440.972C498.248 440.972 475.462 433.692 456.641 419.132C437.82 404.454 423.438 383.206 413.494 355.389C403.551 327.454 398.58 293.718 398.58 254.182C398.58 214.883 403.551 181.324 413.494 153.507C423.556 125.571 437.997 104.265 456.818 89.5866C475.758 74.7902 498.485 67.392 525 67.392C551.515 67.392 574.183 74.7902 593.004 89.5866C611.944 104.265 626.385 125.571 636.328 153.507C646.39 181.324 651.42 214.883 651.42 254.182C651.42 293.718 646.449 327.454 636.506 355.389C626.562 383.206 612.18 404.454 593.359 419.132C574.538 433.692 551.752 440.972 525 440.972ZM525 401.909C551.515 401.909 572.112 389.125 586.79 363.557C601.468 337.989 608.807 301.53 608.807 254.182C608.807 222.695 605.433 195.884 598.686 173.749C592.057 151.613 582.469 134.745 569.922 123.145C557.493 111.545 542.519 105.744 525 105.744C498.722 105.744 478.184 118.706 463.388 144.629C448.591 170.434 441.193 206.952 441.193 254.182C441.193 285.669 444.508 312.42 451.136 334.438C457.765 356.455 467.294 373.204 479.723 384.686C492.27 396.168 507.363 401.909 525 401.909Z" fill="black"/>
<path d="M415.482 222.183C414.457 222.564 413.742 223.271 413.336 224.305C412.929 225.338 412.852 226.503 413.104 227.8C413.289 228.748 413.602 229.541 414.044 230.178C414.484 230.808 415.009 231.257 415.617 231.525C416.224 231.786 416.866 231.835 417.542 231.67C418.108 231.532 418.568 231.278 418.923 230.907C419.269 230.53 419.534 230.093 419.719 229.595C419.898 229.099 420.027 228.593 420.107 228.077C420.181 227.563 420.231 227.094 420.257 226.672L420.414 224.355C420.45 223.762 420.53 223.093 420.652 222.347C420.773 221.595 420.994 220.851 421.314 220.116C421.625 219.376 422.082 218.717 422.686 218.139C423.289 217.562 424.087 217.152 425.081 216.91C426.226 216.631 427.32 216.682 428.363 217.063C429.404 217.438 430.31 218.137 431.08 219.162C431.849 220.179 432.393 221.511 432.713 223.156C433.011 224.69 433.024 226.078 432.752 227.319C432.479 228.554 431.967 229.599 431.215 230.454C430.462 231.302 429.514 231.909 428.371 232.275L427.85 229.598C428.637 229.333 429.247 228.9 429.679 228.298C430.103 227.691 430.372 226.99 430.485 226.196C430.59 225.396 430.559 224.571 430.394 223.721C430.202 222.731 429.87 221.88 429.4 221.17C428.922 220.461 428.352 219.946 427.69 219.626C427.021 219.307 426.3 219.241 425.527 219.43C424.823 219.601 424.289 219.939 423.925 220.444C423.56 220.949 423.303 221.559 423.153 222.275C423.003 222.991 422.898 223.75 422.837 224.553L422.604 227.37C422.453 229.16 422.031 230.65 421.337 231.841C420.644 233.032 419.583 233.802 418.154 234.15C416.968 234.439 415.869 234.366 414.86 233.933C413.843 233.495 412.982 232.784 412.278 231.802C411.566 230.815 411.077 229.638 410.811 228.271C410.543 226.891 410.549 225.604 410.83 224.411C411.105 223.22 411.602 222.208 412.322 221.375C413.04 220.536 413.931 219.968 414.994 219.673L415.482 222.183Z" fill="#F5F5F5"/>
<path d="M431.446 210.763C431.584 212.334 431.357 213.727 430.766 214.942C430.167 216.151 429.27 217.133 428.074 217.886C426.871 218.633 425.437 219.099 423.771 219.283C422.105 219.466 420.61 219.324 419.285 218.856C417.953 218.382 416.883 217.635 416.073 216.618C415.256 215.593 414.782 214.345 414.653 212.874C414.578 212.025 414.645 211.171 414.855 210.312C415.064 209.453 415.457 208.649 416.032 207.9C416.601 207.151 417.386 206.518 418.388 206C419.39 205.482 420.65 205.14 422.168 204.972L423.227 204.855L424.334 217.42L422.174 217.659L421.291 207.641C420.373 207.742 419.571 208.016 418.883 208.464C418.195 208.904 417.672 209.483 417.315 210.201C416.957 210.912 416.818 211.72 416.898 212.626C416.985 213.624 417.309 214.459 417.867 215.134C418.418 215.802 419.102 216.287 419.92 216.589C420.738 216.892 421.595 216.994 422.491 216.895L423.931 216.736C425.16 216.6 426.182 216.273 426.999 215.754C427.808 215.229 428.401 214.56 428.779 213.747C429.149 212.935 429.29 212.023 429.201 211.011C429.143 210.353 428.999 209.769 428.768 209.258C428.53 208.742 428.207 208.309 427.799 207.962C427.383 207.615 426.884 207.366 426.3 207.216L426.765 204.722C427.606 204.886 428.364 205.235 429.038 205.767C429.705 206.301 430.251 206.991 430.675 207.837C431.092 208.684 431.348 209.659 431.446 210.763Z" fill="#F5F5F5"/>
<path d="M409.181 203.196L430.997 202.919L431.023 205.433L409.206 205.71L409.181 203.196Z" fill="#F5F5F5"/>
<path d="M431.862 192.357C431.756 193.93 431.317 195.258 430.546 196.34C429.769 197.414 428.733 198.207 427.439 198.717C426.138 199.219 424.652 199.4 422.982 199.258C421.312 199.116 419.861 198.687 418.628 197.969C417.389 197.244 416.449 196.302 415.809 195.143C415.162 193.977 414.888 192.656 414.988 191.183C415.045 190.332 415.244 189.504 415.583 188.699C415.922 187.894 416.433 187.179 417.116 186.552C417.792 185.926 418.664 185.454 419.732 185.139C420.799 184.823 422.094 184.73 423.615 184.859L424.677 184.949L423.825 197.534L421.659 197.35L422.339 187.316C421.419 187.238 420.585 187.353 419.838 187.66C419.092 187.96 418.487 188.429 418.024 189.067C417.562 189.698 417.3 190.466 417.238 191.373C417.171 192.373 417.36 193.258 417.806 194.03C418.245 194.794 418.844 195.404 419.604 195.861C420.363 196.317 421.192 196.583 422.091 196.66L423.534 196.782C424.766 196.887 425.824 196.763 426.709 196.41C427.587 196.05 428.275 195.506 428.773 194.778C429.264 194.05 429.543 193.18 429.612 192.166C429.656 191.507 429.605 190.904 429.457 190.357C429.302 189.803 429.05 189.314 428.702 188.893C428.346 188.471 427.892 188.129 427.34 187.869L428.184 185.503C428.987 185.828 429.68 186.318 430.262 186.973C430.837 187.627 431.268 188.412 431.555 189.327C431.835 190.242 431.937 191.252 431.862 192.357Z" fill="#F5F5F5"/>
<path d="M433.476 180.868C433.224 182.381 432.653 183.61 431.762 184.555C430.871 185.5 429.754 186.137 428.411 186.465C427.069 186.794 425.598 186.792 423.999 186.458C422.372 186.118 420.986 185.518 419.842 184.655C418.692 183.785 417.857 182.733 417.335 181.501C416.808 180.26 416.666 178.911 416.909 177.453C417.098 176.319 417.477 175.339 418.045 174.516C418.614 173.692 419.323 173.068 420.17 172.643C421.018 172.218 421.954 172.04 422.979 172.109L422.566 174.589C421.804 174.626 421.087 174.911 420.416 175.445C419.738 175.971 419.309 176.78 419.127 177.873C418.966 178.84 419.075 179.74 419.454 180.573C419.827 181.397 420.432 182.107 421.268 182.702C422.099 183.289 423.119 183.708 424.328 183.961C425.566 184.219 426.676 184.248 427.659 184.047C428.644 183.839 429.45 183.427 430.077 182.812C430.706 182.189 431.102 181.387 431.266 180.406C431.373 179.762 431.359 179.154 431.224 178.582C431.089 178.01 430.843 177.498 430.487 177.047C430.131 176.596 429.673 176.232 429.115 175.956L429.528 173.476C430.45 173.813 431.244 174.338 431.91 175.049C432.569 175.753 433.047 176.602 433.341 177.599C433.63 178.587 433.675 179.677 433.476 180.868Z" fill="#F5F5F5"/>
<path d="M420.267 164.164L422.298 164.808L420.217 173.029L418.186 172.384L420.267 164.164ZM415.055 168.803L415.672 166.366L430.539 171.081C431.216 171.296 431.749 171.357 432.138 171.265C432.522 171.164 432.812 170.973 433.007 170.693C433.197 170.403 433.338 170.08 433.428 169.722C433.496 169.453 433.538 169.229 433.555 169.048C433.565 168.865 433.572 168.719 433.578 168.609L435.856 168.796C435.876 168.981 435.878 169.231 435.864 169.546C435.857 169.864 435.796 170.25 435.681 170.704C435.506 171.393 435.19 172.021 434.732 172.59C434.275 173.151 433.694 173.555 432.988 173.8C432.285 174.037 431.479 174.013 430.572 173.725L415.055 168.803Z" fill="#F5F5F5"/>
<path d="M420.662 153.218L418.592 152.119L424.975 137.052L427.045 138.15L424.369 144.468L441.571 153.598L440.54 156.031L423.338 146.9L420.662 153.218Z" fill="#F5F5F5"/>
<path d="M446.723 144.151C446.003 145.441 445.082 146.371 443.963 146.941C442.846 147.505 441.618 147.698 440.277 147.519C438.94 147.333 437.579 146.756 436.194 145.787C434.798 144.81 433.729 143.687 432.989 142.419C432.252 141.144 431.866 139.821 431.83 138.451C431.798 137.074 432.142 135.741 432.862 134.451C433.582 133.162 434.501 132.235 435.617 131.671C436.737 131.1 437.968 130.91 439.311 131.099C440.657 131.282 442.029 131.863 443.425 132.84C444.81 133.809 445.868 134.929 446.599 136.199C447.334 137.464 447.717 138.784 447.75 140.161C447.785 141.531 447.443 142.861 446.723 144.151ZM444.872 142.856C445.42 141.876 445.634 140.905 445.516 139.943C445.398 138.981 445.04 138.079 444.441 137.238C443.843 136.396 443.096 135.662 442.199 135.035C441.303 134.408 440.383 133.975 439.44 133.738C438.496 133.5 437.609 133.53 436.779 133.829C435.948 134.127 435.26 134.767 434.712 135.746C434.165 136.726 433.954 137.699 434.078 138.665C434.202 139.632 434.566 140.538 435.17 141.383C435.774 142.229 436.524 142.965 437.42 143.592C438.316 144.219 439.233 144.649 440.171 144.883C441.109 145.117 441.99 145.082 442.815 144.78C443.639 144.477 444.325 143.836 444.872 142.856Z" fill="#F5F5F5"/>
<path d="M451.976 111.231C451.329 110.894 450.686 110.667 450.048 110.552C449.409 110.427 448.781 110.42 448.165 110.532C447.553 110.639 446.962 110.869 446.392 111.223C445.822 111.577 445.285 112.058 444.781 112.664C443.955 113.658 443.435 114.802 443.22 116.098C443.006 117.393 443.149 118.75 443.649 120.168C444.15 121.586 445.054 122.977 446.362 124.34C447.671 125.703 448.977 126.61 450.281 127.062C451.585 127.513 452.814 127.565 453.966 127.216C455.119 126.868 456.126 126.175 456.989 125.137C457.788 124.176 458.307 123.138 458.547 122.022C458.786 120.895 458.737 119.773 458.399 118.657C458.06 117.529 457.429 116.484 456.504 115.521L457.14 115.021L452.944 120.067L451.321 118.376L456.634 111.987L458.257 113.678C459.501 114.974 460.338 116.396 460.767 117.944C461.201 119.487 461.242 121.038 460.89 122.598C460.538 124.147 459.808 125.588 458.7 126.921C457.465 128.406 456.065 129.383 454.5 129.852C452.94 130.316 451.318 130.257 449.635 129.676C447.957 129.089 446.321 127.966 444.728 126.306C443.533 125.061 442.606 123.764 441.947 122.415C441.287 121.055 440.893 119.697 440.764 118.339C440.635 116.982 440.764 115.668 441.149 114.399C441.535 113.129 442.175 111.956 443.07 110.881C443.805 109.996 444.612 109.297 445.488 108.783C446.365 108.259 447.271 107.925 448.209 107.78C449.145 107.625 450.084 107.66 451.025 107.886C451.961 108.107 452.859 108.523 453.719 109.134L451.976 111.231Z" fill="#F5F5F5"/>
<path d="M466.744 118.644C465.667 119.655 464.512 120.261 463.277 120.462C462.048 120.657 460.826 120.463 459.612 119.88C458.404 119.291 457.293 118.321 456.279 116.968C455.256 115.604 454.589 114.202 454.277 112.762C453.97 111.317 454.01 109.933 454.396 108.612C454.787 107.286 455.521 106.118 456.598 105.106C457.675 104.095 458.828 103.491 460.057 103.296C461.291 103.095 462.515 103.292 463.728 103.886C464.946 104.475 466.066 105.452 467.089 106.816C468.102 108.169 468.761 109.565 469.063 111.004C469.371 112.439 469.329 113.819 468.938 115.145C468.552 116.466 467.821 117.632 466.744 118.644ZM465.39 116.836C466.208 116.068 466.708 115.206 466.891 114.25C467.074 113.293 467.011 112.321 466.703 111.333C466.394 110.344 465.912 109.412 465.256 108.537C464.6 107.662 463.862 106.966 463.042 106.448C462.221 105.93 461.373 105.687 460.495 105.716C459.618 105.746 458.77 106.145 457.952 106.914C457.134 107.682 456.636 108.547 456.457 109.509C456.278 110.471 456.345 111.449 456.658 112.443C456.971 113.437 457.455 114.372 458.111 115.247C458.767 116.122 459.503 116.816 460.319 117.328C461.135 117.839 461.98 118.078 462.853 118.042C463.726 118.006 464.572 117.605 465.39 116.836Z" fill="#F5F5F5"/>
<path d="M475.637 110.755L465.802 91.2789L472.248 87.2004C473.532 86.3877 474.71 85.952 475.781 85.8933C476.849 85.8282 477.785 86.0596 478.591 86.5875C479.392 87.1091 480.034 87.8453 480.514 88.7963C480.936 89.6331 481.144 90.4134 481.138 91.1371C481.137 91.857 480.988 92.5198 480.692 93.1254C480.402 93.7272 480.032 94.2713 479.58 94.7576L479.676 94.9478C480.26 94.6289 480.932 94.4792 481.695 94.4988C482.457 94.5184 483.209 94.7617 483.952 95.2287C484.695 95.6958 485.326 96.4428 485.844 97.4698C486.337 98.4461 486.571 99.4571 486.544 100.503C486.518 101.548 486.167 102.586 485.491 103.616C484.815 104.646 483.751 105.62 482.299 106.539L475.637 110.755ZM476.813 107.25L481.242 104.447C482.701 103.524 483.586 102.571 483.897 101.588C484.211 100.595 484.152 99.67 483.72 98.8142C483.387 98.1548 482.92 97.6468 482.32 97.2902C481.717 96.9272 481.037 96.7638 480.279 96.8C479.518 96.8298 478.735 97.0992 477.931 97.608L473.394 100.479L476.813 107.25ZM472.357 98.4249L476.498 95.8046C477.17 95.3793 477.706 94.8562 478.105 94.2355C478.51 93.611 478.744 92.9445 478.806 92.236C478.874 91.5238 478.735 90.8253 478.389 90.1406C477.957 89.2848 477.308 88.7373 476.443 88.4984C475.575 88.2531 474.529 88.5178 473.304 89.2925L469.091 91.9584L472.357 98.4249Z" fill="#F5F5F5"/>
<path d="M490.256 102.793C489.319 103.237 488.399 103.458 487.497 103.455C486.593 103.446 485.784 103.199 485.071 102.714C484.355 102.223 483.809 101.48 483.431 100.484C483.099 99.6068 482.997 98.817 483.124 98.114C483.249 97.4044 483.532 96.7611 483.972 96.184C484.412 95.6069 484.94 95.0822 485.555 94.6097C486.175 94.1275 486.811 93.6771 487.462 93.2583C488.315 92.7124 489.009 92.2772 489.545 91.9525C490.085 91.6181 490.454 91.3137 490.652 91.0391C490.858 90.7615 490.889 90.4334 490.745 90.0548L490.715 89.9751C490.343 88.9921 489.794 88.3516 489.068 88.0536C488.348 87.7526 487.465 87.8502 486.419 88.3465C485.335 88.8611 484.578 89.5103 484.148 90.2941C483.718 91.0779 483.484 91.8081 483.445 92.4848L480.987 92.7108C481.02 91.5983 481.259 90.6307 481.705 89.8082C482.154 88.9759 482.721 88.2757 483.407 87.7075C484.096 87.1295 484.813 86.664 485.558 86.3108C486.032 86.0855 486.6 85.8864 487.262 85.7137C487.927 85.5312 488.616 85.4823 489.329 85.567C490.049 85.6485 490.739 85.96 491.398 86.5012C492.057 87.0425 492.617 87.9209 493.077 89.1364L496.896 99.2188L494.624 100.297L493.839 98.2244L493.724 98.2792C493.696 98.6843 493.573 99.1615 493.358 99.7106C493.142 100.26 492.786 100.809 492.289 101.357C491.793 101.906 491.115 102.385 490.256 102.793ZM489.802 100.516C490.7 100.09 491.388 99.548 491.866 98.8904C492.35 98.2297 492.64 97.5359 492.735 96.8089C492.837 96.0788 492.768 95.3949 492.526 94.7573L491.711 92.6053C491.66 92.7705 491.49 92.9806 491.2 93.2355C490.915 93.4808 490.574 93.7404 490.178 94.0144C489.786 94.2787 489.402 94.5319 489.024 94.7738C488.65 95.006 488.348 95.1966 488.116 95.3455C487.556 95.7053 487.053 96.0967 486.608 96.5196C486.167 96.9328 485.855 97.3901 485.674 97.8913C485.497 98.3828 485.522 98.9275 485.748 99.5252C486.057 100.342 486.583 100.821 487.326 100.963C488.072 101.094 488.897 100.946 489.802 100.516Z" fill="#F5F5F5"/>
<path d="M501.787 98.2725C500.334 98.766 498.989 98.8414 497.75 98.4986C496.512 98.1559 495.443 97.467 494.546 96.4319C493.648 95.3968 492.986 94.091 492.558 92.5144C492.123 90.9104 492.029 89.3966 492.274 87.9731C492.525 86.5405 493.077 85.301 493.932 84.2545C494.791 83.1989 495.92 82.4335 497.319 81.9582C498.409 81.5881 499.446 81.4602 500.432 81.5744C501.418 81.6887 502.29 82.0212 503.049 82.5719C503.808 83.1225 504.388 83.8686 504.79 84.81L502.41 85.6188C502.033 84.9607 501.457 84.4603 500.681 84.1175C499.91 83.7656 499 83.7679 497.951 84.1243C497.023 84.4396 496.276 84.9629 495.71 85.694C495.15 86.416 494.795 87.2889 494.647 88.3125C494.503 89.327 494.593 90.4306 494.916 91.6233C495.247 92.8435 495.724 93.842 496.346 94.6189C496.974 95.3934 497.703 95.9133 498.531 96.1783C499.366 96.4411 500.254 96.4126 501.196 96.0927C501.815 95.8825 502.346 95.5821 502.791 95.1914C503.236 94.8006 503.578 94.3402 503.816 93.8102C504.054 93.2801 504.169 92.702 504.161 92.0759L506.541 91.2671C506.66 92.2451 506.554 93.1979 506.226 94.1255C505.902 95.044 505.366 95.87 504.617 96.6035C503.874 97.3278 502.93 97.8841 501.787 98.2725Z" fill="#F5F5F5"/>
<path d="M506.717 90.5205L506.153 87.4628L506.653 87.356L512.431 78.6783L515.473 78.029L509.308 87.2246L509.1 87.2691L506.717 90.5205ZM505.427 96.8909L501.763 75.3825L504.222 74.8577L507.885 96.3661L505.427 96.8909ZM515.595 94.7206L507.984 88.0732L509.441 85.9772L518.721 94.0535L515.595 94.7206Z" fill="#F5F5F5"/>
<path d="M541.994 78.8703C541.924 77.7837 541.452 76.9119 540.577 76.2548C539.703 75.5977 538.606 75.2245 537.288 75.1353C536.324 75.0701 535.473 75.1691 534.733 75.4322C534.001 75.6958 533.418 76.087 532.984 76.6057C532.558 77.1249 532.326 77.732 532.288 78.4271C532.257 79.0086 532.368 79.5179 532.622 79.9551C532.883 80.3856 533.226 80.754 533.65 81.0603C534.075 81.3595 534.524 81.6141 534.996 81.824C535.469 82.0268 535.904 82.1951 536.302 82.3288L538.481 83.0742C539.04 83.2614 539.659 83.5098 540.34 83.8192C541.027 84.1291 541.677 84.5325 542.29 85.0296C542.911 85.52 543.412 86.1304 543.792 86.8608C544.172 87.5912 544.334 88.467 544.279 89.4883C544.216 90.6655 543.85 91.7085 543.182 92.6171C542.521 93.5261 541.588 94.221 540.381 94.7017C539.182 95.1828 537.746 95.3668 536.074 95.2536C534.515 95.1481 533.178 94.805 532.065 94.2242C530.958 93.644 530.103 92.8815 529.5 91.9367C528.904 90.9923 528.595 89.9216 528.575 88.7244L531.296 88.9085C531.322 89.736 531.562 90.4355 532.014 91.0071C532.475 91.5721 533.07 92.011 533.799 92.3237C534.537 92.6299 535.338 92.8122 536.202 92.8707C537.208 92.9388 538.121 92.8368 538.939 92.5648C539.758 92.2857 540.417 91.8676 540.916 91.3106C541.416 90.7466 541.688 90.0674 541.731 89.2731C541.77 88.5497 541.599 87.9474 541.22 87.4662C540.841 86.985 540.329 86.5802 539.685 86.2519C539.042 85.9237 538.343 85.6273 537.589 85.3627L534.952 84.4155C533.278 83.8111 531.969 83.0214 531.026 82.0465C530.083 81.0716 529.651 79.8501 529.731 78.3821C529.796 77.1623 530.183 76.1208 530.891 75.2576C531.607 74.3878 532.538 73.7391 533.685 73.3113C534.839 72.8769 536.111 72.7067 537.5 72.8007C538.903 72.8957 540.136 73.2319 541.2 73.8092C542.265 74.3795 543.092 75.1189 543.683 76.0272C544.282 76.9361 544.569 77.9413 544.545 79.043L541.994 78.8703Z" fill="#F5F5F5"/>
<path d="M547.37 97.3524C545.824 97.044 544.545 96.4343 543.533 95.5232C542.529 94.6066 541.823 93.4671 541.415 92.1048C541.014 90.7368 540.946 89.2252 541.209 87.5699C541.473 85.9146 542.005 84.5154 542.805 83.3724C543.613 82.2237 544.613 81.4028 545.805 80.9097C547.006 80.411 548.33 80.3061 549.779 80.5951C550.615 80.7618 551.418 81.0667 552.188 81.5098C552.958 81.9529 553.628 82.5567 554.196 83.3213C554.765 84.0789 555.166 85.0129 555.399 86.1231C555.632 87.2333 555.628 88.5425 555.388 90.0505L555.221 91.1026L542.851 88.6354L543.192 86.4891L553.055 88.4562C553.2 87.5444 553.149 86.6946 552.9 85.907C552.659 85.1207 552.24 84.4547 551.645 83.9089C551.056 83.3645 550.315 83.0033 549.424 82.8255C548.442 82.6297 547.553 82.7057 546.757 83.0536C545.97 83.3958 545.323 83.918 544.816 84.6202C544.309 85.3223 543.984 86.1188 543.843 87.0096L543.615 88.4404C543.421 89.6608 543.465 90.7371 543.748 91.6691C544.039 92.5955 544.525 93.3547 545.207 93.9466C545.89 94.5315 546.729 94.9233 547.725 95.1219C548.373 95.2511 548.973 95.2766 549.524 95.1985C550.084 95.1147 550.584 94.9251 551.027 94.6298C551.47 94.3274 551.841 93.9165 552.139 93.3971L554.414 94.5455C554.034 95.3091 553.498 95.9405 552.808 96.4396C552.119 96.9318 551.312 97.2629 550.386 97.4329C549.462 97.5959 548.457 97.5691 547.37 97.3524Z" fill="#F5F5F5"/>
<path d="M559.112 77.9088L554.004 99.1207L551.597 98.3945L556.705 77.1826L559.112 77.9088Z" fill="#F5F5F5"/>
<path d="M563.383 103.316C561.923 102.719 560.772 101.873 559.93 100.779C559.096 99.6803 558.588 98.4165 558.406 96.9876C558.233 95.5546 558.407 94.0414 558.927 92.4479C559.447 90.8545 560.188 89.5657 561.15 88.5816C562.12 87.5934 563.227 86.9666 564.468 86.7013C565.718 86.432 567.027 86.5769 568.395 87.136C569.183 87.4586 569.918 87.9122 570.599 88.4968C571.28 89.0813 571.837 89.8065 572.27 90.6722C572.705 91.5312 572.948 92.5336 572.999 93.6793C573.05 94.825 572.838 96.1237 572.364 97.5754L572.034 98.5881L560.359 93.814L561.033 91.748L570.341 95.5544C570.628 94.6766 570.713 93.8235 570.596 92.9951C570.485 92.1693 570.182 91.4295 569.688 90.7758C569.2 90.1247 568.535 89.6272 567.694 89.2831C566.767 88.9041 565.888 88.8124 565.056 89.0082C564.234 89.1999 563.52 89.5965 562.913 90.1981C562.307 90.7997 561.864 91.5293 561.584 92.3868L561.135 93.7641C560.751 94.939 560.624 96.0155 560.752 96.9938C560.888 97.968 561.242 98.8129 561.813 99.5286C562.387 100.238 563.143 100.784 564.083 101.169C564.695 101.419 565.276 101.557 565.826 101.583C566.385 101.605 566.904 101.511 567.382 101.301C567.863 101.084 568.29 100.746 568.663 100.286L570.7 101.854C570.208 102.54 569.585 103.066 568.832 103.432C568.082 103.791 567.242 103.968 566.312 103.963C565.385 103.951 564.408 103.735 563.383 103.316Z" fill="#F5F5F5"/>
<path d="M572.812 108.658C571.47 107.915 570.46 106.945 569.783 105.746C569.106 104.547 568.763 103.221 568.755 101.769C568.746 100.318 569.071 98.8445 569.731 97.3501C570.402 95.8297 571.262 94.6358 572.31 93.7684C573.367 92.8979 574.522 92.401 575.775 92.2776C577.037 92.1511 578.314 92.4454 579.607 93.1604C580.614 93.7173 581.435 94.4141 582.071 95.2508C582.707 96.0875 583.128 96.9994 583.334 97.9864C583.54 98.9735 583.498 99.9692 583.21 100.974L581.01 99.7566C581.143 98.9816 581.037 98.1711 580.691 97.3251C580.355 96.4761 579.702 95.7834 578.732 95.2472C577.874 94.7728 577.019 94.5908 576.166 94.7011C575.322 94.8083 574.534 95.1846 573.801 95.8299C573.076 96.4721 572.465 97.3585 571.966 98.489C571.455 99.6455 571.184 100.749 571.154 101.799C571.13 102.853 571.333 103.794 571.764 104.622C572.201 105.454 572.854 106.11 573.724 106.592C574.296 106.908 574.861 107.091 575.419 107.141C575.977 107.191 576.503 107.11 576.998 106.899C577.494 106.688 577.93 106.347 578.308 105.877L580.508 107.094C579.994 107.909 579.335 108.535 578.531 108.971C577.736 109.405 576.847 109.608 575.861 109.58C574.885 109.55 573.869 109.242 572.812 108.658Z" fill="#F5F5F5"/>
<path d="M590.035 100.586L589.01 102.454L582.022 97.6506L583.047 95.7826L590.035 100.586ZM586.969 93.7455L589.041 95.1697L581.54 108.844C581.198 109.466 581.027 109.992 581.026 110.42C581.034 110.846 581.143 111.204 581.355 111.495C581.575 111.784 581.837 112.033 582.142 112.242C582.37 112.399 582.564 112.515 582.724 112.591C582.887 112.66 583.018 112.716 583.116 112.757L582.451 115.027C582.28 114.987 582.053 114.908 581.771 114.791C581.485 114.68 581.149 114.492 580.763 114.226C580.177 113.824 579.677 113.296 579.262 112.642C578.853 111.992 578.615 111.266 578.546 110.465C578.484 109.668 578.682 108.852 579.14 108.017L586.969 93.7455Z" fill="#F5F5F5"/>
<path d="M598.638 104.175L600.079 102.326L611.786 113.759L610.345 115.608L605.437 110.814L593.465 126.174L591.574 124.328L603.546 108.968L598.638 104.175Z" fill="#F5F5F5"/>
<path d="M599.575 134.721C598.644 133.574 598.074 132.317 597.864 130.95C597.659 129.588 597.803 128.214 598.295 126.827C598.792 125.446 599.633 124.153 600.818 122.948C602.014 121.732 603.252 120.911 604.532 120.485C605.818 120.063 607.056 120.032 608.247 120.391C609.443 120.756 610.506 121.512 611.437 122.659C612.368 123.806 612.936 125.06 613.141 126.422C613.351 127.789 613.205 129.165 612.702 130.552C612.205 131.943 611.359 133.247 610.163 134.462C608.978 135.667 607.746 136.478 606.465 136.894C605.189 137.316 603.954 137.344 602.758 136.98C601.567 136.621 600.506 135.868 599.575 134.721ZM601.158 133.111C601.866 133.982 602.649 134.494 603.509 134.646C604.369 134.798 605.237 134.675 606.114 134.277C606.99 133.879 607.812 133.29 608.579 132.51C609.346 131.73 609.951 130.868 610.394 129.925C610.837 128.981 611.034 128.02 610.986 127.043C610.938 126.065 610.56 125.14 609.853 124.269C609.146 123.398 608.36 122.888 607.495 122.741C606.63 122.594 605.757 122.722 604.876 123.125C603.994 123.528 603.17 124.12 602.403 124.9C601.636 125.68 601.033 126.539 600.595 127.478C600.157 128.416 599.965 129.372 600.018 130.345C600.071 131.317 600.451 132.239 601.158 133.111Z" fill="#F5F5F5"/>
<path d="M625.506 149.443C625.987 148.833 626.371 148.2 626.657 147.543C626.953 146.888 627.142 146.216 627.226 145.526C627.313 144.843 627.287 144.151 627.147 143.451C627.008 142.751 626.75 142.054 626.374 141.362C625.756 140.226 624.919 139.381 623.862 138.827C622.805 138.273 621.59 138.088 620.217 138.27C618.844 138.453 617.377 139.076 615.816 140.139C614.254 141.203 613.088 142.378 612.315 143.665C611.543 144.952 611.139 146.258 611.102 147.582C611.066 148.906 611.37 150.161 612.015 151.347C612.612 152.445 613.358 153.262 614.253 153.799C615.157 154.337 616.141 154.565 617.205 154.481C618.279 154.399 619.368 153.983 620.471 153.231L620.717 154.038L617.583 148.273L619.52 146.953L623.489 154.254L621.552 155.573C620.066 156.585 618.592 157.128 617.128 157.201C615.667 157.281 614.314 156.938 613.068 156.17C611.832 155.405 610.8 154.261 609.972 152.738C609.05 151.041 608.615 149.294 608.667 147.497C608.723 145.706 609.249 143.98 610.244 142.319C611.243 140.664 612.693 139.188 614.595 137.893C616.021 136.921 617.414 136.251 618.773 135.881C620.142 135.513 621.432 135.429 622.643 135.63C623.854 135.831 624.952 136.298 625.937 137.029C626.922 137.761 627.748 138.741 628.416 139.97C628.966 140.981 629.334 142.021 629.522 143.091C629.718 144.163 629.742 145.22 629.592 146.262C629.452 147.306 629.147 148.305 628.676 149.259C628.211 150.208 627.588 151.068 626.809 151.839L625.506 149.443Z" fill="#F5F5F5"/>
<path d="M614.172 163.734C613.62 162.364 613.45 161.003 613.661 159.652C613.875 158.308 614.429 157.061 615.325 155.912C616.223 154.769 617.426 153.817 618.935 153.055C620.457 152.288 621.901 151.904 623.267 151.905C624.635 151.912 625.84 152.271 626.882 152.982C627.926 153.699 628.724 154.743 629.276 156.114C629.828 157.484 629.997 158.842 629.783 160.186C629.571 161.537 629.014 162.786 628.109 163.931C627.208 165.084 625.996 166.044 624.474 166.812C622.965 167.573 621.529 167.949 620.167 167.938C618.808 167.935 617.606 167.574 616.562 166.856C615.52 166.145 614.723 165.105 614.172 163.734ZM616.188 162.717C616.607 163.758 617.209 164.485 617.993 164.898C618.777 165.31 619.653 165.467 620.62 165.368C621.587 165.268 622.559 164.972 623.535 164.479C624.512 163.987 625.357 163.366 626.07 162.618C626.783 161.87 627.265 161.028 627.514 160.094C627.763 159.16 627.679 158.172 627.259 157.131C626.84 156.09 626.235 155.365 625.445 154.955C624.654 154.546 623.772 154.392 622.799 154.495C621.826 154.597 620.851 154.895 619.874 155.388C618.898 155.88 618.056 156.499 617.349 157.244C616.642 157.989 616.167 158.828 615.924 159.759C615.681 160.69 615.769 161.676 616.188 162.717Z" fill="#F5F5F5"/>
<path d="M617.724 175.606L638.768 169.844L640.396 177.296C640.72 178.781 640.734 180.075 640.438 181.178C640.149 182.28 639.631 183.183 638.885 183.887C638.145 184.59 637.262 185.082 636.234 185.363C635.33 185.61 634.548 185.652 633.887 185.487C633.229 185.329 632.67 185.033 632.213 184.6C631.756 184.173 631.379 183.677 631.081 183.111L630.876 183.168C630.977 183.831 630.895 184.549 630.628 185.321C630.361 186.092 629.892 186.805 629.222 187.459C628.552 188.113 627.662 188.592 626.552 188.896C625.497 189.185 624.495 189.202 623.547 188.947C622.598 188.692 621.762 188.108 621.04 187.195C620.318 186.283 619.774 184.987 619.407 183.308L617.724 175.606ZM620.548 177.568L621.667 182.689C622.036 184.375 622.619 185.483 623.418 186.015C624.225 186.551 625.091 186.693 626.015 186.44C626.728 186.245 627.345 185.881 627.868 185.348C628.397 184.813 628.769 184.156 628.983 183.377C629.205 182.596 629.214 181.74 629.011 180.811L627.864 175.565L620.548 177.568ZM630.084 174.957L631.13 179.745C631.3 180.522 631.604 181.182 632.041 181.724C632.481 182.272 633.015 182.656 633.643 182.873C634.273 183.098 634.958 183.109 635.698 182.907C636.622 182.653 637.335 182.113 637.837 181.284C638.345 180.454 638.445 179.331 638.135 177.915L637.071 173.044L630.084 174.957Z" fill="#F5F5F5"/>
<path d="M620.1 192.822C619.983 191.791 620.07 190.829 620.361 189.934C620.66 189.038 621.15 188.291 621.833 187.692C622.522 187.092 623.394 186.717 624.449 186.567C625.377 186.435 626.15 186.511 626.768 186.796C627.393 187.08 627.906 187.506 628.306 188.073C628.706 188.64 629.029 189.282 629.275 190C629.529 190.724 629.748 191.457 629.932 192.198C630.171 193.168 630.356 193.955 630.489 194.56C630.63 195.171 630.797 195.607 630.991 195.866C631.186 196.132 631.483 196.237 631.884 196.18L631.969 196.168C633.009 196.02 633.785 195.619 634.297 194.966C634.81 194.319 635.001 193.421 634.87 192.27C634.735 191.078 634.369 190.18 633.771 189.576C633.174 188.973 632.565 188.575 631.943 188.384L632.517 185.893C633.55 186.176 634.38 186.632 635.009 187.26C635.645 187.893 636.12 188.615 636.433 189.423C636.755 190.238 636.962 191.055 637.054 191.874C637.114 192.396 637.118 193.005 637.069 193.7C637.027 194.402 636.852 195.097 636.545 195.786C636.238 196.482 635.725 197.097 635.007 197.629C634.288 198.161 633.286 198.519 631.999 198.702L621.325 200.22L621.042 197.722L623.235 197.41L623.221 197.283C622.85 197.163 622.442 196.934 621.996 196.596C621.551 196.258 621.15 195.781 620.794 195.164C620.439 194.548 620.207 193.767 620.1 192.822ZM622.379 192.885C622.491 193.873 622.779 194.678 623.243 195.3C623.707 195.93 624.265 196.374 624.916 196.633C625.567 196.899 626.231 196.984 626.906 196.888L629.184 196.564C629.046 196.476 628.903 196.26 628.757 195.915C628.618 195.576 628.484 195.179 628.354 194.724C628.231 194.276 628.117 193.836 628.011 193.407C627.913 192.983 627.831 192.64 627.766 192.377C627.608 191.74 627.402 191.152 627.148 190.615C626.902 190.083 626.573 189.671 626.161 189.378C625.757 189.091 625.238 188.993 624.606 189.083C623.741 189.206 623.123 189.62 622.753 190.325C622.391 191.037 622.266 191.89 622.379 192.885Z" fill="#F5F5F5"/>
<path d="M620.659 205.883C620.632 204.349 620.97 203.02 621.675 201.896C622.379 200.772 623.362 199.897 624.622 199.272C625.882 198.647 627.329 198.316 628.962 198.279C630.623 198.242 632.095 198.515 633.377 199.097C634.666 199.686 635.679 200.523 636.416 201.607C637.16 202.699 637.546 203.983 637.572 205.46C637.593 206.61 637.398 207.652 636.989 208.585C636.579 209.517 635.996 210.287 635.24 210.894C634.484 211.5 633.596 211.886 632.576 212.051L632.531 209.537C633.273 209.329 633.926 208.888 634.489 208.214C635.059 207.548 635.335 206.661 635.315 205.553C635.297 204.573 635.026 203.72 634.502 202.993C633.985 202.273 633.261 201.717 632.33 201.326C631.407 200.942 630.328 200.764 629.092 200.791C627.828 200.82 626.731 201.043 625.801 201.462C624.871 201.888 624.154 202.472 623.648 203.215C623.143 203.966 622.9 204.838 622.917 205.832C622.929 206.485 623.053 207.076 623.29 207.603C623.527 208.13 623.862 208.574 624.294 208.934C624.727 209.293 625.243 209.545 625.842 209.688L625.887 212.201C624.919 212.081 624.043 211.749 623.259 211.205C622.482 210.669 621.858 209.948 621.387 209.042C620.924 208.143 620.681 207.09 620.659 205.883Z" fill="#F5F5F5"/>
<path d="M626.594 213.44L629.694 213.697L629.654 214.207L636.356 222.046L636.117 225.148L629.027 216.8L629.043 216.587L626.594 213.44ZM620.836 210.529L642.553 212.629L642.36 215.136L620.643 213.035L620.836 210.529ZM620.036 220.895L628.587 215.302L630.188 217.255L619.79 224.082L620.036 220.895Z" fill="#F5F5F5"/>
<path d="M636.558 286.983C637.593 286.633 638.329 285.947 638.766 284.926C639.203 283.905 639.315 282.743 639.101 281.439C638.945 280.486 638.656 279.684 638.233 279.034C637.812 278.391 637.301 277.927 636.701 277.641C636.102 277.362 635.462 277.294 634.781 277.439C634.211 277.56 633.744 277.8 633.378 278.161C633.021 278.527 632.743 278.956 632.543 279.448C632.35 279.938 632.206 280.44 632.11 280.954C632.021 281.466 631.957 281.933 631.919 282.354L631.693 284.665C631.639 285.257 631.539 285.923 631.395 286.665C631.251 287.413 631.009 288.15 630.667 288.875C630.334 289.606 629.857 290.251 629.237 290.81C628.617 291.37 627.806 291.756 626.806 291.968C625.653 292.213 624.561 292.129 623.53 291.717C622.5 291.312 621.616 290.585 620.877 289.538C620.139 288.498 619.634 287.151 619.364 285.497C619.111 283.955 619.14 282.568 619.448 281.334C619.758 280.108 620.301 279.079 621.078 278.247C621.856 277.422 622.822 276.844 623.975 276.512L624.416 279.203C623.621 279.444 622.999 279.859 622.549 280.448C622.107 281.042 621.818 281.735 621.681 282.525C621.552 283.321 621.558 284.147 621.698 285.002C621.861 285.997 622.167 286.857 622.616 287.581C623.072 288.304 623.626 288.835 624.279 289.175C624.938 289.514 625.657 289.601 626.435 289.436C627.143 289.286 627.687 288.963 628.067 288.47C628.446 287.976 628.721 287.373 628.893 286.662C629.064 285.952 629.192 285.196 629.276 284.394L629.593 281.586C629.797 279.802 630.264 278.325 630.992 277.155C631.721 275.985 632.805 275.247 634.243 274.942C635.438 274.689 636.533 274.793 637.529 275.256C638.533 275.725 639.372 276.461 640.047 277.464C640.729 278.472 641.183 279.663 641.408 281.037C641.635 282.424 641.59 283.71 641.273 284.894C640.964 286.077 640.437 287.074 639.692 287.884C638.949 288.702 638.042 289.243 636.971 289.506L636.558 286.983Z" fill="#F5F5F5"/>
<path d="M620.261 297.922C620.169 296.348 620.437 294.963 621.065 293.765C621.7 292.575 622.626 291.62 623.843 290.903C625.068 290.192 626.515 289.769 628.186 289.635C629.857 289.501 631.347 289.688 632.657 290.195C633.974 290.709 635.022 291.487 635.801 292.528C636.587 293.576 637.024 294.838 637.109 296.313C637.159 297.163 637.066 298.015 636.831 298.867C636.596 299.72 636.18 300.512 635.582 301.244C634.992 301.975 634.188 302.584 633.171 303.072C632.154 303.56 630.884 303.865 629.362 303.987L628.3 304.072L627.568 291.48L629.734 291.306L630.318 301.346C631.238 301.272 632.049 301.022 632.749 300.595C633.45 300.175 633.99 299.612 634.369 298.905C634.748 298.205 634.911 297.401 634.858 296.493C634.8 295.494 634.502 294.649 633.964 293.958C633.433 293.274 632.764 292.769 631.955 292.442C631.147 292.115 630.293 291.988 629.394 292.06L627.95 292.176C626.718 292.275 625.686 292.571 624.854 293.066C624.03 293.566 623.417 294.218 623.015 295.019C622.621 295.82 622.453 296.728 622.512 297.741C622.55 298.401 622.677 298.989 622.892 299.506C623.115 300.03 623.425 300.471 623.823 300.831C624.228 301.19 624.719 301.454 625.298 301.621L624.759 304.1C623.923 303.911 623.176 303.54 622.518 302.987C621.867 302.434 621.343 301.728 620.944 300.87C620.553 300.011 620.325 299.028 620.261 297.922Z" fill="#F5F5F5"/>
<path d="M642.29 306.149L620.475 305.776L620.525 303.262L642.34 303.636L642.29 306.149Z" fill="#F5F5F5"/>
<path d="M619.296 316.308C619.45 314.738 619.928 313.424 620.73 312.366C621.539 311.315 622.598 310.554 623.907 310.083C625.223 309.619 626.713 309.483 628.378 309.674C630.043 309.865 631.481 310.338 632.692 311.092C633.909 311.854 634.82 312.823 635.426 314.001C636.038 315.186 636.272 316.514 636.128 317.984C636.045 318.833 635.822 319.654 635.459 320.449C635.096 321.243 634.564 321.943 633.863 322.549C633.169 323.155 632.283 323.6 631.207 323.884C630.13 324.168 628.833 324.223 627.316 324.048L626.258 323.927L627.484 311.373L629.643 311.621L628.666 321.63C629.583 321.735 630.419 321.646 631.175 321.361C631.93 321.083 632.548 320.632 633.03 320.009C633.511 319.392 633.796 318.631 633.885 317.726C633.982 316.73 633.819 315.839 633.396 315.054C632.98 314.277 632.399 313.649 631.654 313.171C630.909 312.692 630.088 312.401 629.192 312.298L627.753 312.133C626.525 311.992 625.463 312.084 624.568 312.41C623.679 312.744 622.975 313.267 622.456 313.979C621.944 314.693 621.639 315.555 621.54 316.565C621.476 317.223 621.51 317.827 621.641 318.378C621.779 318.937 622.016 319.433 622.352 319.865C622.695 320.297 623.139 320.652 623.683 320.929L622.769 323.268C621.975 322.92 621.297 322.41 620.735 321.737C620.18 321.066 619.773 320.269 619.513 319.345C619.261 318.423 619.189 317.41 619.296 316.308Z" fill="#F5F5F5"/>
<path d="M617.341 327.744C617.638 326.239 618.246 325.027 619.164 324.109C620.083 323.191 621.219 322.588 622.57 322.3C623.922 322.011 625.392 322.057 626.981 322.438C628.597 322.826 629.964 323.468 631.082 324.364C632.205 325.269 633.009 326.345 633.493 327.592C633.983 328.848 634.085 330.201 633.799 331.65C633.577 332.779 633.169 333.746 632.576 334.553C631.982 335.359 631.256 335.962 630.396 336.361C629.536 336.761 628.595 336.911 627.573 336.811L628.06 334.345C628.822 334.331 629.547 334.067 630.234 333.553C630.927 333.048 631.38 332.252 631.595 331.165C631.785 330.203 631.702 329.3 631.348 328.456C630.999 327.621 630.416 326.894 629.598 326.274C628.785 325.663 627.778 325.213 626.577 324.925C625.347 324.63 624.238 324.568 623.25 324.74C622.26 324.918 621.442 325.305 620.796 325.902C620.149 326.506 619.729 327.295 619.537 328.271C619.41 328.912 619.406 329.52 619.524 330.096C619.642 330.672 619.872 331.19 620.215 331.652C620.558 332.114 621.004 332.491 621.554 332.784L621.067 335.25C620.156 334.885 619.378 334.337 618.734 333.606C618.095 332.884 617.643 332.02 617.379 331.015C617.12 330.019 617.107 328.928 617.341 327.744Z" fill="#F5F5F5"/>
<path d="M630.047 344.834L628.036 344.13L630.361 335.974L632.372 336.679L630.047 344.834ZM635.394 340.352L634.705 342.77L619.985 337.613C619.315 337.379 618.784 337.302 618.393 337.382C618.006 337.472 617.711 337.654 617.507 337.928C617.308 338.212 617.158 338.531 617.057 338.886C616.981 339.153 616.932 339.376 616.91 339.556C616.895 339.739 616.883 339.885 616.874 339.994L614.602 339.739C614.589 339.554 614.594 339.304 614.617 338.989C614.634 338.672 614.706 338.288 614.835 337.837C615.029 337.154 615.364 336.536 615.839 335.981C616.313 335.433 616.906 335.047 617.618 334.823C618.329 334.607 619.133 334.656 620.031 334.97L635.394 340.352Z" fill="#F5F5F5"/>
<path d="M629.326 355.763L631.362 356.923L624.534 371.794L622.497 370.634L625.36 364.399L608.438 354.761L609.541 352.36L626.463 361.998L629.326 355.763Z" fill="#F5F5F5"/>
<path d="M603.007 364.05C603.765 362.782 604.712 361.88 605.849 361.343C606.981 360.812 608.215 360.656 609.549 360.875C610.88 361.101 612.224 361.718 613.579 362.728C614.946 363.747 615.98 364.901 616.683 366.191C617.381 367.486 617.728 368.82 617.723 370.191C617.714 371.568 617.331 372.89 616.572 374.158C615.814 375.426 614.868 376.325 613.736 376.856C612.6 377.392 611.363 377.546 610.026 377.317C608.686 377.093 607.333 376.473 605.966 375.454C604.61 374.444 603.586 373.293 602.893 372.002C602.197 370.716 601.853 369.385 601.861 368.008C601.866 366.637 602.248 365.317 603.007 364.05ZM604.818 365.399C604.242 366.362 603.998 367.326 604.088 368.292C604.177 369.257 604.508 370.169 605.081 371.028C605.654 371.887 606.379 372.643 607.256 373.297C608.134 373.95 609.04 374.41 609.976 374.675C610.912 374.941 611.8 374.937 612.639 374.663C613.478 374.39 614.185 373.771 614.761 372.808C615.337 371.845 615.578 370.879 615.483 369.91C615.388 368.94 615.051 368.024 614.472 367.16C613.893 366.297 613.165 365.539 612.288 364.886C611.411 364.232 610.508 363.775 609.577 363.513C608.647 363.252 607.765 363.26 606.932 363.538C606.098 363.816 605.394 364.436 604.818 365.399Z" fill="#F5F5F5"/>
<path d="M596.776 396.799C597.412 397.155 598.048 397.401 598.683 397.535C599.318 397.679 599.945 397.705 600.564 397.611C601.179 397.523 601.776 397.31 602.357 396.973C602.937 396.636 603.488 396.172 604.01 395.581C604.865 394.612 605.419 393.484 605.672 392.195C605.925 390.907 605.822 389.546 605.364 388.114C604.906 386.681 604.044 385.264 602.777 383.863C601.51 382.462 600.231 381.516 598.941 381.026C597.651 380.535 596.425 380.447 595.262 380.761C594.1 381.075 593.072 381.738 592.179 382.749C591.351 383.686 590.801 384.709 590.529 385.817C590.256 386.936 590.272 388.059 590.577 389.185C590.881 390.322 591.482 391.386 592.377 392.376L591.727 392.857L596.071 387.938L597.643 389.676L592.142 395.905L590.57 394.166C589.365 392.833 588.571 391.387 588.188 389.827C587.8 388.272 587.806 386.72 588.204 385.172C588.602 383.633 589.374 382.215 590.521 380.916C591.8 379.468 593.229 378.533 594.807 378.111C596.38 377.694 597.999 377.801 599.664 378.432C601.324 379.068 602.926 380.24 604.469 381.947C605.627 383.227 606.515 384.551 607.133 385.919C607.752 387.297 608.105 388.667 608.194 390.028C608.282 391.388 608.115 392.697 607.691 393.955C607.268 395.212 606.593 396.366 605.667 397.414C604.906 398.277 604.079 398.951 603.187 399.439C602.296 399.936 601.38 400.244 600.438 400.36C599.497 400.488 598.56 400.424 597.626 400.17C596.697 399.921 595.812 399.479 594.971 398.843L596.776 396.799Z" fill="#F5F5F5"/>
<path d="M582.235 388.95C583.341 387.971 584.514 387.4 585.754 387.236C586.989 387.077 588.204 387.307 589.4 387.926C590.591 388.551 591.672 389.554 592.646 390.936C593.627 392.33 594.252 393.751 594.521 395.2C594.785 396.654 594.704 398.035 594.279 399.344C593.848 400.658 593.08 401.804 591.973 402.783C590.867 403.762 589.696 404.331 588.462 404.49C587.222 404.654 586.005 404.421 584.81 403.791C583.61 403.165 582.519 402.155 581.538 400.762C580.565 399.38 579.949 397.965 579.689 396.517C579.424 395.074 579.507 393.695 579.937 392.381C580.362 391.072 581.128 389.928 582.235 388.95ZM583.535 390.796C582.694 391.54 582.168 392.387 581.957 393.337C581.745 394.288 581.779 395.261 582.058 396.259C582.337 397.256 582.792 398.202 583.421 399.096C584.051 399.99 584.768 400.708 585.572 401.25C586.377 401.792 587.218 402.061 588.096 402.057C588.974 402.053 589.833 401.68 590.673 400.936C591.514 400.193 592.038 399.343 592.245 398.387C592.452 397.431 592.415 396.451 592.131 395.448C591.848 394.445 591.392 393.496 590.762 392.602C590.133 391.708 589.418 390.992 588.617 390.456C587.817 389.92 586.98 389.657 586.106 389.667C585.232 389.676 584.375 390.053 583.535 390.796Z" fill="#F5F5F5"/>
<path d="M573.111 396.57L582.362 416.33L575.797 420.215C574.489 420.989 573.299 421.39 572.226 421.416C571.157 421.45 570.228 421.19 569.439 420.639C568.653 420.094 568.034 419.339 567.582 418.374C567.185 417.525 567 416.738 567.028 416.015C567.051 415.296 567.219 414.638 567.533 414.041C567.84 413.448 568.227 412.915 568.693 412.443L568.602 412.25C568.01 412.551 567.333 412.681 566.572 412.638C565.81 412.596 565.065 412.331 564.337 411.842C563.608 411.353 563 410.587 562.512 409.545C562.049 408.555 561.846 407.537 561.903 406.493C561.961 405.448 562.342 404.422 563.048 403.412C563.755 402.403 564.847 401.461 566.326 400.585L573.111 396.57ZM571.831 400.038L567.32 402.708C565.835 403.587 564.922 404.513 564.582 405.487C564.238 406.47 564.27 407.396 564.676 408.265C564.989 408.934 565.44 409.455 566.029 409.83C566.621 410.21 567.297 410.394 568.055 410.38C568.817 410.373 569.607 410.127 570.426 409.643L575.047 406.908L571.831 400.038ZM576.023 408.992L571.805 411.488C571.121 411.893 570.57 412.4 570.152 413.009C569.728 413.621 569.475 414.28 569.392 414.986C569.303 415.696 569.421 416.399 569.746 417.093C570.152 417.962 570.785 418.528 571.642 418.793C572.503 419.064 573.556 418.83 574.803 418.092L579.094 415.553L576.023 408.992Z" fill="#F5F5F5"/>
<path d="M558.262 404.093C559.211 403.677 560.137 403.483 561.038 403.513C561.942 403.55 562.743 403.821 563.442 404.326C564.142 404.838 564.667 405.598 565.014 406.605C565.32 407.491 565.399 408.283 565.25 408.982C565.104 409.688 564.803 410.323 564.346 410.886C563.889 411.45 563.346 411.959 562.716 412.413C562.082 412.876 561.433 413.307 560.77 413.707C559.901 414.227 559.194 414.641 558.649 414.95C558.1 415.268 557.722 415.561 557.515 415.83C557.301 416.101 557.261 416.428 557.393 416.811L557.42 416.892C557.763 417.885 558.293 418.542 559.01 418.861C559.72 419.184 560.606 419.112 561.666 418.647C562.765 418.165 563.541 417.539 563.994 416.768C564.447 415.998 564.703 415.275 564.762 414.599L567.226 414.447C567.16 415.558 566.892 416.518 566.422 417.327C565.948 418.145 565.36 418.828 564.658 419.376C563.951 419.933 563.221 420.377 562.467 420.708C561.985 420.919 561.411 421.101 560.745 421.254C560.075 421.416 559.385 421.445 558.674 421.339C557.957 421.236 557.277 420.904 556.635 420.344C555.992 419.783 555.458 418.888 555.035 417.66L551.518 407.468L553.821 406.458L554.543 408.553L554.66 408.502C554.701 408.097 554.837 407.624 555.069 407.082C555.301 406.539 555.674 406.001 556.186 405.467C556.698 404.933 557.39 404.475 558.262 404.093ZM558.647 406.382C557.736 406.782 557.033 407.303 556.536 407.946C556.032 408.592 555.722 409.277 555.605 410.001C555.481 410.727 555.53 411.413 555.753 412.058L556.503 414.233C556.559 414.069 556.735 413.864 557.032 413.618C557.325 413.381 557.673 413.132 558.077 412.87C558.477 412.617 558.869 412.376 559.254 412.145C559.634 411.924 559.942 411.743 560.178 411.601C560.749 411.258 561.263 410.882 561.721 410.472C562.174 410.072 562.499 409.625 562.695 409.129C562.887 408.643 562.878 408.098 562.67 407.494C562.385 406.668 561.873 406.173 561.136 406.01C560.394 405.856 559.564 405.98 558.647 406.382Z" fill="#F5F5F5"/>
<path d="M546.6 408.268C548.067 407.818 549.414 407.783 550.642 408.162C551.87 408.542 552.917 409.262 553.784 410.324C554.65 411.385 555.273 412.71 555.654 414.298C556.041 415.915 556.09 417.431 555.802 418.846C555.509 420.271 554.92 421.493 554.035 422.514C553.144 423.543 551.993 424.275 550.58 424.708C549.48 425.046 548.44 425.143 547.458 424.999C546.476 424.855 545.614 424.497 544.872 423.924C544.129 423.351 543.571 422.588 543.197 421.635L545.601 420.898C545.958 421.567 546.519 422.084 547.285 422.45C548.045 422.824 548.955 422.849 550.014 422.524C550.951 422.237 551.713 421.736 552.3 421.022C552.882 420.317 553.262 419.455 553.441 418.436C553.615 417.427 553.558 416.321 553.27 415.119C552.976 413.889 552.529 412.877 551.931 412.082C551.325 411.289 550.613 410.748 549.793 410.458C548.966 410.171 548.077 410.173 547.126 410.464C546.502 410.656 545.961 410.941 545.505 411.318C545.049 411.695 544.694 412.145 544.44 412.668C544.186 413.191 544.054 413.765 544.043 414.391L541.64 415.129C541.551 414.148 541.684 413.198 542.04 412.281C542.391 411.373 542.952 410.563 543.722 409.852C544.487 409.15 545.446 408.622 546.6 408.268Z" fill="#F5F5F5"/>
<path d="M541.442 415.87L541.915 418.943L541.412 419.035L535.378 427.537L532.318 428.095L538.753 419.087L538.963 419.049L541.442 415.87ZM542.921 409.541L545.943 431.149L543.469 431.6L540.448 409.992L542.921 409.541ZM532.693 411.407L540.102 418.278L538.583 420.33L529.548 411.981L532.693 411.407Z" fill="#F5F5F5"/>
<path d="M505.834 426.464C505.871 427.552 506.317 428.438 507.172 429.121C508.027 429.804 509.111 430.209 510.426 430.338C511.387 430.432 512.242 430.358 512.989 430.117C513.729 429.875 514.323 429.502 514.772 428.996C515.214 428.49 515.463 427.89 515.522 427.196C515.57 426.616 515.474 426.104 515.234 425.659C514.985 425.221 514.654 424.842 514.239 424.524C513.823 424.212 513.382 423.944 512.916 423.72C512.45 423.503 512.02 423.322 511.626 423.177L509.47 422.367C508.917 422.163 508.305 421.896 507.635 421.567C506.957 421.237 506.319 420.814 505.721 420.299C505.115 419.79 504.633 419.165 504.275 418.424C503.916 417.682 503.78 416.802 503.866 415.783C503.964 414.608 504.361 413.576 505.055 412.688C505.743 411.799 506.697 411.132 507.917 410.688C509.13 410.243 510.571 410.102 512.239 410.264C513.794 410.416 515.12 410.799 516.216 411.413C517.305 412.026 518.136 412.813 518.711 413.776C519.279 414.737 519.556 415.817 519.541 417.014L516.826 416.749C516.824 415.921 516.606 415.215 516.17 414.63C515.727 414.052 515.145 413.595 514.425 413.261C513.697 412.933 512.902 412.727 512.04 412.642C511.036 412.544 510.121 412.619 509.295 412.867C508.468 413.121 507.797 413.52 507.281 414.061C506.765 414.61 506.473 415.281 506.407 416.074C506.346 416.796 506.498 417.403 506.863 417.895C507.228 418.387 507.727 418.807 508.361 419.155C508.995 419.502 509.684 419.819 510.43 420.106L513.038 421.131C514.693 421.785 515.978 422.613 516.891 423.616C517.805 424.619 518.2 425.852 518.077 427.317C517.975 428.535 517.557 429.564 516.824 430.406C516.083 431.254 515.132 431.875 513.973 432.268C512.807 432.668 511.531 432.8 510.145 432.665C508.746 432.528 507.523 432.155 506.476 431.547C505.429 430.945 504.624 430.181 504.06 429.256C503.489 428.329 503.232 427.316 503.289 426.216L505.834 426.464Z" fill="#F5F5F5"/>
<path d="M501.01 407.83C502.547 408.184 503.807 408.832 504.791 409.773C505.767 410.719 506.439 411.879 506.807 413.253C507.166 414.632 507.19 416.145 506.877 417.792C506.564 419.439 505.991 420.821 505.157 421.94C504.316 423.064 503.291 423.855 502.085 424.312C500.87 424.775 499.543 424.84 498.103 424.508C497.273 424.317 496.479 423.988 495.723 423.522C494.966 423.056 494.315 422.433 493.77 421.652C493.223 420.877 492.85 419.932 492.651 418.815C492.451 417.699 492.493 416.39 492.778 414.89L492.977 413.843L505.268 416.678L504.863 418.813L495.063 416.553C494.891 417.46 494.917 418.311 495.142 419.106C495.36 419.899 495.758 420.577 496.337 421.14C496.91 421.702 497.639 422.085 498.525 422.289C499.501 422.514 500.391 422.465 501.197 422.141C501.994 421.822 502.657 421.32 503.184 420.633C503.712 419.946 504.06 419.16 504.228 418.273L504.499 416.85C504.729 415.636 504.717 414.559 504.462 413.619C504.199 412.684 503.735 411.911 503.071 411.299C502.406 410.694 501.579 410.277 500.589 410.049C499.945 409.901 499.347 409.857 498.793 409.919C498.231 409.986 497.725 410.161 497.274 410.443C496.822 410.732 496.439 411.131 496.126 411.642L493.886 410.426C494.289 409.674 494.843 409.059 495.547 408.581C496.251 408.109 497.068 407.802 497.998 407.66C498.926 407.524 499.931 407.581 501.01 407.83Z" fill="#F5F5F5"/>
<path d="M488.695 426.915L494.432 405.865L496.816 406.663L491.079 427.713L488.695 426.915Z" fill="#F5F5F5"/>
<path d="M485.182 401.393C486.623 402.033 487.749 402.912 488.558 404.031C489.359 405.154 489.829 406.432 489.968 407.866C490.098 409.304 489.88 410.811 489.313 412.388C488.745 413.966 487.966 415.232 486.976 416.187C485.976 417.146 484.852 417.739 483.603 417.967C482.345 418.199 481.041 418.015 479.691 417.416C478.912 417.07 478.191 416.595 477.528 415.99C476.864 415.385 476.329 414.644 475.922 413.766C475.513 412.894 475.3 411.885 475.284 410.738C475.267 409.592 475.517 408.3 476.034 406.863L476.394 405.86L487.922 410.98L487.187 413.025L477.996 408.943C477.683 409.812 477.573 410.662 477.665 411.494C477.751 412.323 478.032 413.071 478.506 413.739C478.975 414.404 479.624 414.922 480.455 415.291C481.37 415.697 482.246 415.815 483.083 415.644C483.911 415.477 484.637 415.102 485.261 414.518C485.885 413.935 486.349 413.219 486.654 412.37L487.145 411.007C487.563 409.844 487.723 408.772 487.624 407.79C487.517 406.812 487.188 405.957 486.638 405.225C486.086 404.499 485.346 403.93 484.418 403.518C483.814 403.25 483.238 403.095 482.689 403.052C482.13 403.014 481.609 403.092 481.125 403.288C480.638 403.49 480.201 403.815 479.814 404.263L477.825 402.636C478.337 401.965 478.975 401.457 479.738 401.114C480.499 400.778 481.344 400.626 482.273 400.659C483.2 400.698 484.17 400.943 485.182 401.393Z" fill="#F5F5F5"/>
<path d="M475.916 395.772C477.236 396.554 478.216 397.555 478.857 398.773C479.498 399.992 479.801 401.327 479.767 402.778C479.732 404.23 479.363 405.692 478.659 407.167C477.943 408.666 477.048 409.834 475.975 410.67C474.893 411.508 473.723 411.971 472.467 412.057C471.202 412.146 469.934 411.813 468.663 411.06C467.673 410.474 466.873 409.753 466.262 408.897C465.652 408.042 465.258 407.118 465.081 406.125C464.905 405.133 464.976 404.139 465.294 403.143L467.457 404.425C467.301 405.196 467.383 406.009 467.703 406.865C468.014 407.724 468.646 408.436 469.6 409C470.443 409.5 471.292 409.708 472.148 409.623C472.994 409.541 473.794 409.188 474.546 408.565C475.289 407.945 475.927 407.077 476.459 405.962C477.004 404.821 477.308 403.726 477.369 402.677C477.425 401.625 477.25 400.678 476.844 399.837C476.432 398.993 475.798 398.317 474.943 397.81C474.381 397.477 473.822 397.277 473.266 397.211C472.709 397.144 472.181 397.209 471.679 397.405C471.178 397.602 470.732 397.929 470.34 398.388L468.177 397.106C468.716 396.307 469.393 395.701 470.209 395.288C471.016 394.879 471.912 394.702 472.896 394.759C473.871 394.819 474.877 395.157 475.916 395.772Z" fill="#F5F5F5"/>
<path d="M458.46 403.327L459.54 401.49L466.383 406.5L465.303 408.337L458.46 403.327ZM461.321 410.256L459.293 408.771L467.198 395.326C467.558 394.714 467.745 394.194 467.759 393.766C467.764 393.34 467.665 392.979 467.462 392.682C467.25 392.387 466.996 392.13 466.698 391.912C466.474 391.748 466.284 391.626 466.126 391.546C465.965 391.472 465.836 391.412 465.739 391.368L466.471 389.119C466.641 389.164 466.865 389.25 467.144 389.375C467.427 389.494 467.757 389.692 468.135 389.969C468.708 390.389 469.192 390.931 469.588 391.598C469.977 392.259 470.194 392.992 470.238 393.795C470.277 394.594 470.055 395.404 469.572 396.224L461.321 410.256Z" fill="#F5F5F5"/>
<path d="M449.968 399.484L448.473 401.289L437.112 389.512L438.607 387.707L443.37 392.645L455.795 377.648L457.629 379.55L445.205 394.546L449.968 399.484Z" fill="#F5F5F5"/>
<path d="M449.942 368.923C450.838 370.098 451.371 371.371 451.539 372.744C451.704 374.111 451.519 375.48 450.986 376.852C450.448 378.218 449.568 379.485 448.348 380.654C447.117 381.834 445.855 382.617 444.562 383.006C443.265 383.388 442.027 383.383 440.847 382.988C439.662 382.588 438.622 381.801 437.726 380.627C436.829 379.453 436.299 378.182 436.134 376.815C435.965 375.442 436.153 374.071 436.696 372.7C437.234 371.324 438.119 370.046 439.35 368.867C440.571 367.697 441.827 366.924 443.119 366.546C444.407 366.162 445.643 366.171 446.827 366.571C448.007 366.965 449.045 367.749 449.942 368.923ZM448.311 370.486C447.63 369.594 446.862 369.059 446.007 368.881C445.152 368.703 444.28 368.8 443.392 369.172C442.504 369.544 441.665 370.108 440.876 370.865C440.086 371.622 439.455 372.465 438.984 373.395C438.514 374.325 438.288 375.28 438.307 376.259C438.326 377.237 438.676 378.173 439.356 379.065C440.037 379.957 440.808 380.489 441.668 380.662C442.528 380.835 443.405 380.733 444.298 380.356C445.191 379.979 446.033 379.413 446.822 378.656C447.612 377.899 448.24 377.058 448.706 376.133C449.172 375.208 449.392 374.258 449.368 373.285C449.344 372.311 448.992 371.378 448.311 370.486Z" fill="#F5F5F5"/>
<path d="M424.46 353.436C423.961 354.031 423.559 354.653 423.253 355.301C422.938 355.946 422.729 356.612 422.624 357.299C422.517 357.98 422.523 358.672 422.641 359.376C422.76 360.08 422.997 360.784 423.352 361.488C423.936 362.641 424.747 363.51 425.788 364.096C426.828 364.681 428.037 364.902 429.414 364.761C430.792 364.619 432.277 364.04 433.869 363.024C435.462 362.007 436.663 360.867 437.473 359.604C438.284 358.34 438.726 357.047 438.802 355.725C438.878 354.402 438.611 353.138 438.002 351.934C437.438 350.819 436.717 349.98 435.839 349.417C434.951 348.852 433.974 348.595 432.907 348.647C431.832 348.697 430.731 349.081 429.606 349.799L429.384 348.985L432.345 354.841L430.37 356.102L426.62 348.687L428.596 347.426C430.11 346.459 431.6 345.96 433.066 345.93C434.528 345.894 435.871 346.278 437.093 347.082C438.306 347.884 439.304 349.058 440.085 350.604C440.957 352.328 441.34 354.088 441.234 355.883C441.125 357.671 440.548 359.381 439.503 361.011C438.456 362.636 436.962 364.067 435.023 365.305C433.568 366.234 432.156 366.863 430.786 367.192C429.407 367.519 428.116 367.564 426.911 367.327C425.706 367.09 424.623 366.592 423.66 365.831C422.697 365.071 421.9 364.066 421.269 362.817C420.75 361.791 420.413 360.74 420.257 359.665C420.093 358.588 420.101 357.531 420.281 356.494C420.452 355.454 420.787 354.464 421.286 353.525C421.78 352.59 422.427 351.749 423.23 351.002L424.46 353.436Z" fill="#F5F5F5"/>
<path d="M436.215 339.488C436.726 340.874 436.856 342.24 436.604 343.584C436.35 344.921 435.759 346.151 434.83 347.273C433.898 348.389 432.667 349.304 431.136 350.02C429.592 350.743 428.137 351.083 426.772 351.042C425.404 350.994 424.21 350.599 423.191 349.857C422.168 349.109 421.402 348.042 420.891 346.655C420.38 345.269 420.252 343.907 420.506 342.57C420.757 341.226 421.352 339.994 422.29 338.876C423.225 337.751 424.465 336.827 426.009 336.105C427.54 335.389 428.986 335.057 430.347 335.107C431.706 335.152 432.897 335.548 433.919 336.296C434.939 337.038 435.705 338.102 436.215 339.488ZM434.169 340.445C433.781 339.392 433.202 338.648 432.43 338.212C431.659 337.776 430.788 337.593 429.819 337.664C428.849 337.734 427.869 338.001 426.878 338.464C425.887 338.928 425.024 339.523 424.289 340.25C423.554 340.976 423.047 341.803 422.77 342.729C422.493 343.656 422.549 344.646 422.937 345.699C423.325 346.752 423.908 347.495 424.686 347.928C425.464 348.361 426.341 348.54 427.317 348.467C428.292 348.393 429.276 348.125 430.267 347.661C431.257 347.198 432.117 346.604 432.846 345.881C433.575 345.157 434.075 344.333 434.345 343.41C434.616 342.486 434.557 341.498 434.169 340.445Z" fill="#F5F5F5"/>
<path d="M433.018 327.516L411.812 332.648L410.407 325.151C410.127 323.657 410.151 322.363 410.48 321.269C410.802 320.177 411.346 319.29 412.113 318.608C412.873 317.928 413.771 317.463 414.807 317.212C415.718 316.992 416.501 316.974 417.156 317.158C417.81 317.335 418.359 317.648 418.804 318.095C419.247 318.535 419.609 319.042 419.89 319.616L420.097 319.566C420.016 318.9 420.12 318.185 420.41 317.421C420.699 316.658 421.189 315.959 421.878 315.326C422.568 314.692 423.472 314.239 424.59 313.969C425.653 313.712 426.655 313.724 427.595 314.008C428.536 314.291 429.354 314.899 430.048 315.833C430.743 316.767 431.249 318.078 431.566 319.768L433.018 327.516ZM430.253 325.471L429.288 320.319C428.969 318.623 428.419 317.497 427.637 316.942C426.846 316.382 425.985 316.214 425.053 316.44C424.335 316.614 423.707 316.959 423.169 317.476C422.624 317.995 422.233 318.64 421.995 319.413C421.751 320.187 421.716 321.042 421.892 321.978L422.881 327.255L430.253 325.471ZM420.644 327.796L419.741 322.98C419.595 322.198 419.311 321.529 418.889 320.975C418.466 320.413 417.944 320.014 417.323 319.778C416.7 319.534 416.015 319.503 415.27 319.683C414.338 319.909 413.609 320.428 413.083 321.241C412.551 322.056 412.418 323.176 412.685 324.6L413.603 329.5L420.644 327.796Z" fill="#F5F5F5"/>
<path d="M431.156 310.237C431.242 311.271 431.126 312.23 430.808 313.116C430.483 314.002 429.971 314.735 429.271 315.313C428.564 315.892 427.682 316.241 426.623 316.36C425.691 316.464 424.921 316.364 424.311 316.061C423.695 315.759 423.195 315.318 422.812 314.74C422.429 314.161 422.125 313.509 421.901 312.784C421.669 312.053 421.472 311.314 421.31 310.568C421.1 309.591 420.938 308.798 420.823 308.19C420.7 307.575 420.546 307.135 420.36 306.87C420.174 306.598 419.879 306.485 419.477 306.53L419.392 306.539C418.347 306.656 417.56 307.033 417.029 307.672C416.497 308.302 416.28 309.195 416.376 310.348C416.476 311.545 416.815 312.453 417.394 313.074C417.973 313.695 418.57 314.111 419.186 314.32L418.538 316.793C417.514 316.479 416.697 315.999 416.088 315.353C415.471 314.7 415.017 313.965 414.728 313.147C414.432 312.323 414.249 311.501 414.181 310.68C414.137 310.156 414.15 309.547 414.221 308.854C414.283 308.154 414.479 307.464 414.807 306.784C415.134 306.098 415.665 305.499 416.399 304.988C417.133 304.477 418.146 304.15 419.437 304.005L430.152 302.806L430.361 305.311L428.158 305.558L428.169 305.685C428.536 305.816 428.937 306.056 429.373 306.408C429.808 306.759 430.194 307.248 430.532 307.875C430.869 308.501 431.077 309.289 431.156 310.237ZM428.88 310.106C428.797 309.115 428.533 308.302 428.088 307.666C427.643 307.023 427.099 306.562 426.456 306.284C425.812 305.999 425.152 305.894 424.474 305.97L422.187 306.226C422.323 306.318 422.459 306.539 422.595 306.888C422.723 307.231 422.846 307.631 422.962 308.09C423.071 308.542 423.172 308.984 423.265 309.417C423.351 309.843 423.422 310.188 423.48 310.453C423.619 311.095 423.808 311.688 424.045 312.233C424.275 312.772 424.592 313.194 424.995 313.499C425.39 313.797 425.906 313.911 426.541 313.84C427.409 313.743 428.039 313.347 428.43 312.653C428.813 311.953 428.963 311.104 428.88 310.106Z" fill="#F5F5F5"/>
<path d="M430.986 297.165C430.968 298.699 430.59 300.018 429.852 301.12C429.115 302.223 428.107 303.068 426.828 303.655C425.55 304.242 424.094 304.53 422.461 304.518C420.799 304.506 419.336 304.19 418.072 303.57C416.801 302.942 415.813 302.076 415.109 300.97C414.397 299.857 414.051 298.561 414.068 297.084C414.082 295.934 414.307 294.898 414.744 293.978C415.181 293.058 415.787 292.306 416.561 291.722C417.335 291.139 418.234 290.779 419.258 290.645L419.229 293.159C418.481 293.345 417.815 293.766 417.232 294.423C416.642 295.072 416.34 295.95 416.327 297.058C416.315 298.038 416.561 298.899 417.064 299.642C417.559 300.377 418.266 300.954 419.184 301.372C420.096 301.784 421.169 301.994 422.405 302.003C423.669 302.013 424.773 301.822 425.715 301.431C426.657 301.033 427.392 300.47 427.919 299.742C428.446 299.008 428.716 298.143 428.727 297.149C428.735 296.496 428.628 295.902 428.407 295.367C428.187 294.833 427.865 294.38 427.443 294.007C427.022 293.635 426.513 293.368 425.919 293.208L425.949 290.694C426.913 290.843 427.779 291.201 428.546 291.768C429.307 292.327 429.909 293.067 430.352 293.986C430.789 294.898 431 295.958 430.986 297.165Z" fill="#F5F5F5"/>
<path d="M425.279 289.435L422.188 289.086L422.243 288.577L415.777 280.541L416.109 277.448L422.947 286.004L422.924 286.216L425.279 289.435ZM430.947 292.516L409.303 289.77L409.571 287.27L431.215 290.016L430.947 292.516ZM432.056 282.178L423.342 287.514L421.8 285.515L432.397 279L432.056 282.178Z" fill="#F5F5F5"/>
</svg>
