<svg width="1152" height="457" viewBox="0 0 1152 457" fill="none" xmlns="http://www.w3.org/2000/svg">
<path d="M33.7189 335.426V299.205L193.52 46.3636H219.798V102.472H202.043L81.3042 293.523V296.364H296.503V335.426H33.7189ZM204.884 410V324.418V307.55V46.3636H246.787V410H204.884Z" fill="black"/>
<g filter="url(#filter0_d_2_150)">
<rect x="361" y="100.5" width="430" height="256" rx="128" fill="black"/>
<path d="M476.445 216.324C476.123 215.131 475.649 214.08 475.024 213.17C474.399 212.242 473.632 211.456 472.723 210.812C471.814 210.169 470.772 209.686 469.598 209.364C468.424 209.023 467.136 208.852 465.734 208.852C462.912 208.852 460.469 209.534 458.405 210.898C456.359 212.261 454.778 214.25 453.661 216.864C452.543 219.458 451.984 222.612 451.984 226.324C451.984 230.055 452.524 233.237 453.604 235.869C454.683 238.502 456.246 240.509 458.291 241.892C460.337 243.275 462.818 243.966 465.734 243.966C468.31 243.966 470.488 243.549 472.268 242.716C474.068 241.864 475.431 240.661 476.359 239.108C477.287 237.555 477.751 235.727 477.751 233.625L480.365 233.938H466.217V223.682H491.303V231.381C491.303 236.589 490.195 241.049 487.979 244.761C485.782 248.473 482.751 251.324 478.888 253.312C475.043 255.301 470.621 256.295 465.621 256.295C460.071 256.295 455.195 255.093 450.99 252.688C446.786 250.282 443.509 246.854 441.161 242.403C438.812 237.934 437.638 232.631 437.638 226.494C437.638 221.722 438.348 217.489 439.768 213.795C441.189 210.083 443.168 206.939 445.706 204.364C448.263 201.788 451.217 199.837 454.57 198.511C457.941 197.186 461.568 196.523 465.45 196.523C468.821 196.523 471.956 197.006 474.854 197.972C477.77 198.938 480.346 200.301 482.581 202.062C484.835 203.824 486.662 205.917 488.064 208.341C489.465 210.765 490.337 213.426 490.678 216.324H476.445ZM519.96 256.324C515.377 256.324 511.438 255.386 508.142 253.511C504.866 251.617 502.337 248.985 500.557 245.614C498.795 242.223 497.915 238.294 497.915 233.824C497.915 229.335 498.795 225.405 500.557 222.034C502.337 218.644 504.866 216.011 508.142 214.136C511.438 212.242 515.377 211.295 519.96 211.295C524.544 211.295 528.473 212.242 531.75 214.136C535.045 216.011 537.574 218.644 539.335 222.034C541.116 225.405 542.006 229.335 542.006 233.824C542.006 238.294 541.116 242.223 539.335 245.614C537.574 248.985 535.045 251.617 531.75 253.511C528.473 255.386 524.544 256.324 519.96 256.324ZM520.045 245.841C521.712 245.841 523.123 245.33 524.278 244.307C525.434 243.284 526.314 241.864 526.92 240.045C527.545 238.227 527.858 236.125 527.858 233.739C527.858 231.314 527.545 229.193 526.92 227.375C526.314 225.557 525.434 224.136 524.278 223.114C523.123 222.091 521.712 221.58 520.045 221.58C518.322 221.58 516.864 222.091 515.67 223.114C514.496 224.136 513.597 225.557 512.972 227.375C512.366 229.193 512.062 231.314 512.062 233.739C512.062 236.125 512.366 238.227 512.972 240.045C513.597 241.864 514.496 243.284 515.67 244.307C516.864 245.33 518.322 245.841 520.045 245.841ZM566.31 255.5V197.318H590.571C594.927 197.318 598.573 197.934 601.509 199.165C604.463 200.396 606.679 202.119 608.156 204.335C609.652 206.551 610.401 209.117 610.401 212.034C610.401 214.25 609.937 216.229 609.009 217.972C608.08 219.695 606.802 221.125 605.173 222.261C603.545 223.398 601.66 224.193 599.52 224.648V225.216C601.868 225.33 604.037 225.964 606.026 227.119C608.033 228.275 609.643 229.884 610.855 231.949C612.067 233.994 612.673 236.419 612.673 239.222C612.673 242.347 611.878 245.14 610.287 247.602C608.696 250.045 606.395 251.977 603.384 253.398C600.372 254.799 596.717 255.5 592.418 255.5H566.31ZM580.372 244.165H589.065C592.115 244.165 594.359 243.587 595.798 242.432C597.257 241.277 597.986 239.667 597.986 237.602C597.986 236.106 597.635 234.818 596.935 233.739C596.234 232.64 595.24 231.797 593.952 231.21C592.664 230.604 591.12 230.301 589.321 230.301H580.372V244.165ZM580.372 221.239H588.156C589.69 221.239 591.054 220.983 592.247 220.472C593.44 219.96 594.368 219.222 595.031 218.256C595.713 217.29 596.054 216.125 596.054 214.761C596.054 212.811 595.363 211.277 593.98 210.159C592.598 209.042 590.732 208.483 588.384 208.483H580.372V221.239ZM631.736 256.239C628.952 256.239 626.48 255.775 624.321 254.847C622.181 253.9 620.486 252.479 619.236 250.585C618.005 248.672 617.389 246.277 617.389 243.398C617.389 240.973 617.815 238.928 618.668 237.261C619.52 235.595 620.694 234.241 622.19 233.199C623.687 232.157 625.41 231.371 627.361 230.841C629.312 230.292 631.395 229.922 633.611 229.733C636.092 229.506 638.09 229.269 639.605 229.023C641.12 228.758 642.219 228.388 642.901 227.915C643.601 227.422 643.952 226.731 643.952 225.841V225.699C643.952 224.241 643.45 223.114 642.446 222.318C641.442 221.523 640.088 221.125 638.384 221.125C636.546 221.125 635.069 221.523 633.952 222.318C632.834 223.114 632.124 224.212 631.821 225.614L619.009 225.159C619.387 222.508 620.363 220.14 621.935 218.057C623.526 215.955 625.704 214.307 628.469 213.114C631.253 211.902 634.596 211.295 638.497 211.295C641.281 211.295 643.848 211.627 646.196 212.29C648.545 212.934 650.59 213.881 652.332 215.131C654.075 216.362 655.42 217.877 656.366 219.676C657.332 221.475 657.815 223.53 657.815 225.841V255.5H644.747V249.42H644.406C643.63 250.898 642.635 252.148 641.423 253.17C640.23 254.193 638.819 254.96 637.19 255.472C635.58 255.983 633.762 256.239 631.736 256.239ZM636.026 247.148C637.522 247.148 638.866 246.845 640.06 246.239C641.272 245.633 642.238 244.799 642.957 243.739C643.677 242.659 644.037 241.409 644.037 239.989V235.841C643.639 236.049 643.156 236.239 642.588 236.409C642.039 236.58 641.433 236.741 640.77 236.892C640.107 237.044 639.425 237.176 638.724 237.29C638.024 237.403 637.351 237.508 636.707 237.602C635.401 237.811 634.283 238.133 633.355 238.568C632.446 239.004 631.745 239.572 631.253 240.273C630.779 240.955 630.543 241.769 630.543 242.716C630.543 244.155 631.054 245.254 632.077 246.011C633.118 246.769 634.435 247.148 636.026 247.148ZM686.679 256.324C682.077 256.324 678.128 255.377 674.832 253.483C671.556 251.589 669.037 248.956 667.276 245.585C665.514 242.195 664.634 238.275 664.634 233.824C664.634 229.354 665.514 225.434 667.276 222.062C669.056 218.672 671.584 216.03 674.861 214.136C678.156 212.242 682.086 211.295 686.651 211.295C690.685 211.295 694.198 212.025 697.19 213.483C700.202 214.941 702.55 217.006 704.236 219.676C705.94 222.328 706.84 225.443 706.935 229.023H693.952C693.687 226.788 692.929 225.036 691.679 223.767C690.448 222.498 688.838 221.864 686.849 221.864C685.24 221.864 683.829 222.318 682.616 223.227C681.404 224.117 680.457 225.443 679.776 227.205C679.113 228.947 678.781 231.106 678.781 233.682C678.781 236.258 679.113 238.436 679.776 240.216C680.457 241.977 681.404 243.312 682.616 244.222C683.829 245.112 685.24 245.557 686.849 245.557C688.137 245.557 689.274 245.282 690.259 244.733C691.262 244.184 692.086 243.379 692.73 242.318C693.374 241.239 693.781 239.932 693.952 238.398H706.935C706.802 241.996 705.902 245.14 704.236 247.83C702.588 250.519 700.268 252.612 697.276 254.108C694.302 255.585 690.77 256.324 686.679 256.324ZM726.572 244.051L726.629 227.489H728.561L740.834 211.864H756.572L738.334 234.25H734.669L726.572 244.051ZM714.044 255.5V197.318H727.936V255.5H714.044ZM741.146 255.5L729.726 237.375L738.874 227.517L757.197 255.5H741.146Z" fill="white"/>
<path d="M518.069 339.958C518.438 340.987 519.136 341.711 520.164 342.13C521.193 342.549 522.357 342.64 523.657 342.404C524.607 342.232 525.404 341.928 526.046 341.495C526.682 341.062 527.137 340.543 527.413 339.938C527.681 339.334 527.737 338.693 527.581 338.015C527.45 337.447 527.202 336.984 526.835 336.625C526.463 336.274 526.029 336.003 525.534 335.812C525.04 335.628 524.535 335.492 524.02 335.405C523.507 335.326 523.039 335.27 522.617 335.238L520.303 335.053C519.71 335.009 519.042 334.921 518.298 334.789C517.547 334.659 516.806 334.429 516.075 334.101C515.339 333.78 514.685 333.315 514.115 332.704C513.545 332.094 513.145 331.29 512.915 330.294C512.651 329.145 512.715 328.052 513.11 327.014C513.497 325.977 514.207 325.081 515.241 324.323C516.268 323.567 517.607 323.039 519.256 322.74C520.793 322.461 522.181 322.465 523.419 322.752C524.651 323.041 525.689 323.566 526.534 324.328C527.373 325.092 527.968 326.047 528.32 327.195L525.637 327.682C525.382 326.892 524.956 326.277 524.36 325.837C523.758 325.405 523.06 325.128 522.268 325.005C521.47 324.891 520.644 324.911 519.792 325.065C518.799 325.246 517.945 325.567 517.229 326.028C516.514 326.497 515.992 327.06 515.664 327.718C515.336 328.383 515.262 329.104 515.441 329.879C515.603 330.585 515.935 331.123 516.435 331.494C516.936 331.864 517.543 332.129 518.256 332.288C518.97 332.447 519.728 332.561 520.531 332.632L523.345 332.9C525.132 333.073 526.617 333.514 527.799 334.222C528.982 334.93 529.738 336.001 530.068 337.433C530.343 338.624 530.257 339.721 529.811 340.725C529.36 341.737 528.639 342.589 527.648 343.28C526.652 343.98 525.469 344.455 524.099 344.703C522.716 344.955 521.429 344.932 520.24 344.636C519.052 344.347 518.046 343.837 517.223 343.107C516.392 342.378 515.836 341.481 515.554 340.414L518.069 339.958Z" fill="#F5F5F5"/>
<path d="M506.848 323.853C508.42 323.734 509.81 323.978 511.018 324.585C512.22 325.199 513.19 326.108 513.929 327.313C514.661 328.525 515.109 329.965 515.272 331.633C515.435 333.301 515.275 334.795 514.79 336.113C514.299 337.439 513.54 338.5 512.512 339.297C511.478 340.102 510.224 340.56 508.751 340.671C507.901 340.736 507.048 340.658 506.192 340.438C505.335 340.217 504.536 339.815 503.794 339.23C503.053 338.653 502.429 337.859 501.924 336.851C501.419 335.842 501.091 334.578 500.943 333.059L500.839 331.998L513.417 331.047L513.628 333.21L503.6 333.968C503.69 334.887 503.954 335.693 504.393 336.386C504.825 337.08 505.398 337.61 506.111 337.976C506.818 338.343 507.624 338.492 508.531 338.423C509.529 338.348 510.369 338.035 511.05 337.485C511.725 336.943 512.219 336.265 512.531 335.451C512.844 334.637 512.956 333.781 512.869 332.883L512.728 331.441C512.607 330.211 512.293 329.185 511.784 328.361C511.269 327.546 510.607 326.944 509.799 326.557C508.991 326.176 508.081 326.025 507.068 326.101C506.409 326.151 505.824 326.288 505.31 326.512C504.791 326.743 504.355 327.061 504.002 327.465C503.65 327.876 503.395 328.373 503.238 328.954L500.749 328.459C500.924 327.62 501.282 326.866 501.823 326.199C502.365 325.538 503.061 325.001 503.913 324.588C504.765 324.182 505.743 323.937 506.848 323.853Z" fill="#F5F5F5"/>
<path d="M499.006 346.023L498.999 324.205L501.513 324.21L501.52 346.028L499.006 346.023Z" fill="#F5F5F5"/>
<path d="M488.449 323.209C490.021 323.335 491.343 323.79 492.415 324.574C493.48 325.365 494.259 326.41 494.753 327.711C495.24 329.018 495.402 330.506 495.239 332.174C495.077 333.842 494.63 335.288 493.897 336.512C493.156 337.742 492.203 338.67 491.036 339.296C489.861 339.928 488.538 340.186 487.065 340.068C486.216 340 485.391 339.791 484.59 339.442C483.789 339.093 483.08 338.573 482.462 337.882C481.844 337.198 481.383 336.321 481.081 335.249C480.778 334.178 480.701 332.882 480.849 331.363L480.952 330.302L493.525 331.31L493.315 333.473L483.29 332.67C483.201 333.589 483.305 334.423 483.603 335.174C483.894 335.924 484.355 336.534 484.987 337.005C485.612 337.476 486.378 337.747 487.284 337.82C488.282 337.9 489.17 337.721 489.947 337.285C490.717 336.855 491.335 336.264 491.8 335.51C492.266 334.757 492.543 333.931 492.63 333.033L492.77 331.591C492.89 330.361 492.779 329.302 492.438 328.412C492.088 327.529 491.553 326.835 490.832 326.328C490.11 325.828 489.243 325.538 488.23 325.457C487.572 325.404 486.968 325.448 486.419 325.59C485.863 325.737 485.371 325.983 484.946 326.326C484.519 326.677 484.172 327.127 483.905 327.675L481.55 326.802C481.884 326.003 482.383 325.316 483.045 324.742C483.707 324.175 484.497 323.754 485.415 323.479C486.333 323.211 487.345 323.121 488.449 323.209Z" fill="#F5F5F5"/>
<path d="M476.98 321.453C478.49 321.723 479.712 322.31 480.646 323.213C481.58 324.116 482.203 325.24 482.515 326.587C482.827 327.933 482.806 329.404 482.453 330.999C482.093 332.621 481.475 333.999 480.599 335.133C479.714 336.272 478.652 337.094 477.413 337.6C476.166 338.112 474.815 338.238 473.361 337.977C472.229 337.774 471.254 337.383 470.437 336.804C469.621 336.225 469.005 335.509 468.591 334.656C468.177 333.803 468.011 332.865 468.092 331.841L470.567 332.285C470.594 333.047 470.871 333.767 471.396 334.445C471.913 335.129 472.717 335.569 473.808 335.764C474.773 335.937 475.674 335.839 476.511 335.47C477.341 335.107 478.058 334.511 478.663 333.683C479.26 332.86 479.692 331.845 479.959 330.638C480.233 329.404 480.276 328.294 480.087 327.309C479.891 326.322 479.49 325.511 478.882 324.876C478.267 324.239 477.47 323.833 476.491 323.658C475.848 323.542 475.24 323.549 474.666 323.676C474.093 323.804 473.578 324.044 473.123 324.395C472.667 324.745 472.298 325.198 472.015 325.753L469.54 325.309C469.889 324.391 470.423 323.604 471.143 322.947C471.854 322.296 472.71 321.83 473.71 321.548C474.702 321.271 475.792 321.24 476.98 321.453Z" fill="#F5F5F5"/>
<path d="M460.114 334.455L460.783 332.432L468.978 334.614L468.308 336.637L460.114 334.455ZM464.688 339.723L462.259 339.076L467.158 324.269C467.381 323.595 467.449 323.062 467.362 322.672C467.265 322.287 467.078 321.995 466.8 321.796C466.513 321.602 466.191 321.458 465.834 321.363C465.567 321.292 465.343 321.247 465.162 321.228C464.98 321.216 464.833 321.206 464.724 321.199L464.939 318.923C465.124 318.907 465.374 318.907 465.689 318.925C466.006 318.936 466.392 319.002 466.845 319.123C467.531 319.306 468.155 319.63 468.718 320.095C469.274 320.559 469.67 321.145 469.907 321.853C470.136 322.56 470.101 323.365 469.802 324.269L464.688 339.723Z" fill="#F5F5F5"/>
<path d="M449.174 333.924L448.049 335.98L433.062 329.411L434.187 327.355L440.47 330.109L449.813 313.022L452.233 314.082L442.89 331.169L449.174 333.924Z" fill="#F5F5F5"/>
<path d="M440.43 307.753C441.711 308.489 442.63 309.42 443.186 310.547C443.736 311.67 443.914 312.901 443.718 314.239C443.516 315.574 442.922 316.928 441.936 318.301C440.941 319.685 439.805 320.739 438.528 321.464C437.244 322.185 435.917 322.555 434.546 322.574C433.169 322.589 431.841 322.229 430.56 321.492C429.279 320.756 428.364 319.826 427.813 318.703C427.257 317.576 427.082 316.343 427.288 315.002C427.488 313.658 428.085 312.294 429.079 310.91C430.065 309.537 431.198 308.493 432.478 307.778C433.751 307.059 435.076 306.692 436.453 306.677C437.824 306.658 439.15 307.016 440.43 307.753ZM439.113 309.587C438.14 309.028 437.171 308.801 436.208 308.907C435.244 309.014 434.338 309.361 433.489 309.949C432.641 310.536 431.897 311.275 431.259 312.163C430.621 313.051 430.177 313.966 429.928 314.906C429.678 315.847 429.698 316.734 429.986 317.568C430.274 318.402 430.905 319.099 431.878 319.658C432.85 320.217 433.821 320.441 434.789 320.329C435.756 320.217 436.667 319.864 437.52 319.271C438.372 318.677 439.118 317.936 439.756 317.048C440.394 316.159 440.836 315.248 441.081 314.313C441.327 313.378 441.303 312.496 441.011 311.668C440.718 310.84 440.086 310.146 439.113 309.587Z" fill="#F5F5F5"/>
<path d="M407.578 302.093C407.232 302.735 406.998 303.375 406.875 304.012C406.742 304.65 406.727 305.277 406.832 305.895C406.931 306.508 407.154 307.102 407.501 307.676C407.848 308.25 408.322 308.793 408.921 309.304C409.905 310.143 411.043 310.677 412.336 310.908C413.628 311.138 414.987 311.012 416.411 310.529C417.835 310.046 419.237 309.159 420.616 307.868C421.995 306.577 422.919 305.282 423.386 303.983C423.854 302.685 423.921 301.457 423.587 300.301C423.253 299.144 422.572 298.128 421.545 297.252C420.594 296.441 419.562 295.909 418.449 295.655C417.325 295.402 416.203 295.438 415.082 295.762C413.951 296.087 412.898 296.705 411.923 297.618L411.432 296.976L416.425 301.234L414.715 302.836L408.391 297.444L410.102 295.842C411.414 294.614 412.846 293.795 414.399 293.385C415.947 292.97 417.499 292.949 419.054 293.319C420.599 293.691 422.031 294.438 423.349 295.563C424.819 296.816 425.779 298.228 426.229 299.799C426.673 301.365 426.594 302.986 425.992 304.661C425.385 306.332 424.242 307.954 422.562 309.527C421.302 310.706 419.994 311.617 418.636 312.259C417.269 312.902 415.906 313.279 414.547 313.391C413.188 313.503 411.876 313.359 410.611 312.957C409.347 312.556 408.182 311.901 407.117 310.994C406.242 310.247 405.553 309.432 405.05 308.549C404.537 307.667 404.214 306.756 404.081 305.817C403.937 304.878 403.984 303.94 404.222 303.002C404.454 302.069 404.881 301.176 405.502 300.323L407.578 302.093Z" fill="#F5F5F5"/>
<path d="M415.173 287.417C416.171 288.507 416.762 289.67 416.948 290.907C417.128 292.138 416.919 293.357 416.32 294.564C415.717 295.765 414.733 296.864 413.368 297.861C411.991 298.866 410.581 299.516 409.137 299.81C407.688 300.099 406.305 300.043 404.989 299.64C403.668 299.233 402.509 298.485 401.511 297.395C400.513 296.306 399.924 295.146 399.743 293.914C399.558 292.677 399.77 291.456 400.379 290.25C400.983 289.04 401.974 287.932 403.35 286.926C404.715 285.929 406.119 285.289 407.562 285.004C409.001 284.714 410.38 284.772 411.701 285.18C413.018 285.582 414.175 286.328 415.173 287.417ZM413.349 288.749C412.591 287.922 411.735 287.411 410.781 287.216C409.827 287.021 408.854 287.072 407.862 287.368C406.87 287.664 405.932 288.135 405.049 288.78C404.165 289.425 403.46 290.155 402.932 290.969C402.404 291.782 402.15 292.628 402.169 293.506C402.188 294.383 402.577 295.236 403.335 296.063C404.093 296.891 404.952 297.4 405.911 297.59C406.871 297.781 407.85 297.726 408.848 297.426C409.845 297.125 410.786 296.652 411.669 296.007C412.553 295.362 413.255 294.635 413.777 293.825C414.299 293.016 414.548 292.174 414.523 291.301C414.498 290.427 414.107 289.577 413.349 288.749Z" fill="#F5F5F5"/>
<path d="M407.395 278.428L387.799 288.021L383.8 281.525C383.003 280.231 382.582 279.047 382.537 277.976C382.485 276.907 382.728 275.973 383.266 275.175C383.797 274.38 384.541 273.748 385.498 273.279C386.34 272.867 387.123 272.669 387.847 272.684C388.566 272.694 389.227 272.851 389.829 273.154C390.427 273.452 390.967 273.829 391.448 274.286L391.639 274.193C391.327 273.605 391.186 272.931 391.215 272.169C391.244 271.407 391.497 270.658 391.973 269.921C392.449 269.184 393.204 268.562 394.237 268.057C395.219 267.576 396.233 267.355 397.278 267.394C398.324 267.433 399.357 267.797 400.378 268.486C401.4 269.174 402.361 270.25 403.262 271.714L407.395 278.428ZM403.905 277.208L401.157 272.744C400.252 271.275 399.31 270.378 398.331 270.055C397.341 269.728 396.416 269.776 395.555 270.198C394.892 270.522 394.378 270.983 394.014 271.578C393.643 272.176 393.472 272.855 393.498 273.613C393.519 274.374 393.778 275.16 394.277 275.971L397.092 280.543L403.905 277.208ZM395.025 281.555L392.456 277.382C392.039 276.704 391.523 276.162 390.907 275.755C390.288 275.342 389.624 275.1 388.917 275.03C388.205 274.953 387.505 275.083 386.816 275.42C385.955 275.842 385.4 276.484 385.15 277.346C384.894 278.211 385.146 279.261 385.905 280.494L388.519 284.74L395.025 281.555Z" fill="#F5F5F5"/>
<path d="M399.614 263.711C400.047 264.654 400.257 265.576 400.242 266.477C400.222 267.382 399.965 268.187 399.472 268.895C398.972 269.604 398.222 270.142 397.221 270.507C396.34 270.828 395.549 270.92 394.848 270.784C394.14 270.651 393.5 270.36 392.928 269.913C392.357 269.466 391.838 268.932 391.374 268.31C390.899 267.684 390.457 267.043 390.046 266.387C389.511 265.527 389.084 264.827 388.766 264.288C388.438 263.744 388.138 263.371 387.866 263.169C387.591 262.96 387.264 262.925 386.883 263.064L386.803 263.093C385.816 263.453 385.168 263.995 384.861 264.717C384.552 265.433 384.638 266.316 385.122 267.368C385.623 268.459 386.262 269.224 387.041 269.664C387.819 270.103 388.547 270.347 389.223 270.394L389.418 272.854C388.306 272.808 387.342 272.557 386.525 272.101C385.698 271.641 385.005 271.065 384.445 270.373C383.876 269.676 383.419 268.954 383.075 268.205C382.856 267.727 382.664 267.157 382.499 266.494C382.325 265.826 382.285 265.136 382.378 264.424C382.469 263.706 382.789 263.02 383.338 262.368C383.887 261.715 384.773 261.166 385.994 260.721L396.123 257.028L397.172 259.312L395.091 260.071L395.144 260.188C395.549 260.221 396.024 260.349 396.571 260.572C397.117 260.794 397.662 261.157 398.204 261.66C398.747 262.163 399.217 262.847 399.614 263.711ZM397.332 264.137C396.917 263.233 396.384 262.538 395.732 262.053C395.077 261.561 394.387 261.262 393.661 261.158C392.933 261.047 392.248 261.108 391.607 261.341L389.446 262.13C389.61 262.183 389.818 262.356 390.069 262.648C390.311 262.937 390.566 263.281 390.836 263.68C391.095 264.075 391.343 264.463 391.581 264.844C391.808 265.22 391.995 265.525 392.141 265.758C392.494 266.323 392.879 266.83 393.296 267.281C393.704 267.728 394.157 268.044 394.656 268.232C395.146 268.415 395.691 268.397 396.291 268.178C397.112 267.879 397.597 267.359 397.748 266.618C397.889 265.874 397.75 265.047 397.332 264.137Z" fill="#F5F5F5"/>
<path d="M395.237 252.125C395.713 253.583 395.771 254.93 395.413 256.164C395.055 257.398 394.353 258.458 393.307 259.343C392.261 260.227 390.947 260.874 389.365 261.282C387.756 261.697 386.241 261.773 384.821 261.509C383.391 261.241 382.159 260.673 381.123 259.806C380.078 258.933 379.327 257.795 378.869 256.39C378.512 255.296 378.397 254.257 378.524 253.273C378.65 252.289 378.993 251.421 379.553 250.669C380.113 249.917 380.866 249.345 381.813 248.955L382.592 251.345C381.929 251.714 381.422 252.284 381.07 253.056C380.708 253.822 380.699 254.732 381.043 255.786C381.346 256.718 381.86 257.471 382.584 258.045C383.299 258.615 384.168 258.98 385.189 259.141C386.202 259.297 387.307 259.221 388.503 258.913C389.728 258.597 390.732 258.133 391.516 257.521C392.299 256.902 392.828 256.179 393.103 255.355C393.376 254.523 393.358 253.634 393.05 252.689C392.848 252.068 392.554 251.532 392.169 251.083C391.783 250.633 391.327 250.286 390.8 250.041C390.273 249.796 389.697 249.674 389.07 249.675L388.291 247.284C389.27 247.178 390.222 247.295 391.145 247.635C392.06 247.97 392.879 248.517 393.603 249.274C394.318 250.027 394.863 250.977 395.237 252.125Z" fill="#F5F5F5"/>
<path d="M387.547 247.099L384.482 247.625L384.382 247.124L375.776 241.239L375.164 238.189L384.283 244.467L384.325 244.676L387.547 247.099ZM393.9 248.468L372.348 251.866L371.854 249.4L393.406 246.003L393.9 248.468ZM391.856 238.274L385.115 245.802L383.037 244.319L391.228 235.14L391.856 238.274Z" fill="#F5F5F5"/>
<path d="M376.334 211.681C375.247 211.737 374.369 212.198 373.701 213.065C373.033 213.931 372.647 215.023 372.541 216.34C372.464 217.303 372.552 218.156 372.806 218.898C373.061 219.634 373.445 220.222 373.958 220.662C374.472 221.094 375.076 221.334 375.771 221.38C376.352 221.419 376.862 221.314 377.303 221.065C377.736 220.81 378.109 220.471 378.421 220.051C378.725 219.63 378.985 219.184 379.201 218.715C379.41 218.245 379.583 217.811 379.722 217.415L380.494 215.246C380.688 214.689 380.944 214.073 381.262 213.396C381.58 212.713 381.992 212.068 382.497 211.461C382.995 210.846 383.611 210.353 384.346 209.982C385.081 209.611 385.959 209.459 386.98 209.527C388.156 209.605 389.194 209.984 390.094 210.663C390.995 211.335 391.679 212.277 392.144 213.489C392.61 214.695 392.777 216.133 392.643 217.804C392.518 219.361 392.158 220.693 391.564 221.799C390.97 222.899 390.197 223.744 389.245 224.336C388.293 224.92 387.219 225.215 386.021 225.221L386.239 222.503C387.067 222.486 387.769 222.255 388.346 221.81C388.917 221.357 389.363 220.767 389.685 220.041C390 219.308 390.192 218.509 390.262 217.645C390.342 216.64 390.252 215.727 389.99 214.905C389.721 214.083 389.311 213.419 388.76 212.912C388.202 212.405 387.526 212.126 386.733 212.073C386.01 212.025 385.406 212.188 384.92 212.561C384.434 212.934 384.023 213.441 383.687 214.081C383.35 214.72 383.045 215.415 382.771 216.166L381.792 218.791C381.167 220.457 380.361 221.756 379.374 222.687C378.388 223.618 377.161 224.035 375.694 223.937C374.475 223.856 373.439 223.456 372.584 222.738C371.723 222.011 371.086 221.072 370.673 219.92C370.253 218.761 370.098 217.487 370.209 216.1C370.322 214.698 370.673 213.469 371.264 212.412C371.847 211.354 372.596 210.536 373.512 209.956C374.428 209.369 375.437 209.095 376.538 209.132L376.334 211.681Z" fill="#F5F5F5"/>
<path d="M394.881 206.534C394.554 208.076 393.928 209.347 393.005 210.348C392.076 211.341 390.928 212.032 389.56 212.424C388.187 212.807 386.675 212.857 385.023 212.573C383.371 212.289 381.979 211.74 380.846 210.926C379.707 210.104 378.899 209.093 378.42 207.895C377.937 206.689 377.848 205.363 378.155 203.918C378.332 203.084 378.647 202.285 379.099 201.52C379.552 200.755 380.164 200.094 380.936 199.535C381.7 198.975 382.639 198.586 383.752 198.367C384.865 198.147 386.174 198.167 387.679 198.426L388.729 198.606L386.109 210.945L383.967 210.577L386.056 200.739C385.146 200.583 384.296 200.624 383.505 200.862C382.716 201.094 382.045 201.504 381.492 202.093C380.94 202.675 380.57 203.411 380.381 204.3C380.173 205.28 380.238 206.17 380.576 206.969C380.908 207.761 381.423 208.415 382.118 208.93C382.814 209.446 383.607 209.78 384.496 209.933L385.923 210.179C387.141 210.388 388.218 210.357 389.154 210.086C390.083 209.806 390.849 209.329 391.449 208.655C392.042 207.979 392.444 207.145 392.655 206.151C392.793 205.505 392.825 204.906 392.754 204.353C392.677 203.793 392.494 203.29 392.204 202.844C391.907 202.397 391.501 202.021 390.985 201.716L392.162 199.456C392.921 199.845 393.545 200.388 394.036 201.085C394.519 201.78 394.84 202.591 394.999 203.519C395.151 204.445 395.111 205.45 394.881 206.534Z" fill="#F5F5F5"/>
<path d="M375.585 194.552L396.732 199.922L395.976 202.32L374.829 196.95L375.585 194.552Z" fill="#F5F5F5"/>
<path d="M401.042 190.596C400.428 192.048 399.568 193.189 398.463 194.018C397.354 194.838 396.084 195.33 394.653 195.494C393.218 195.649 391.707 195.457 390.12 194.917C388.533 194.378 387.254 193.621 386.282 192.647C385.306 191.664 384.693 190.55 384.443 189.305C384.189 188.052 384.35 186.745 384.926 185.385C385.258 184.6 385.721 183.87 386.314 183.197C386.907 182.523 387.639 181.975 388.51 181.553C389.374 181.129 390.38 180.898 391.526 180.862C392.672 180.825 393.968 181.053 395.414 181.544L396.422 181.887L391.504 193.503L389.446 192.803L393.368 183.542C392.494 183.245 391.642 183.149 390.812 183.256C389.985 183.357 389.241 183.65 388.582 184.136C387.924 184.616 387.419 185.275 387.064 186.112C386.674 187.034 386.571 187.912 386.757 188.746C386.938 189.57 387.326 190.29 387.92 190.903C388.514 191.517 389.238 191.969 390.092 192.259L391.464 192.726C392.634 193.124 393.709 193.265 394.688 193.149C395.664 193.025 396.513 192.681 397.236 192.119C397.952 191.554 398.508 190.804 398.904 189.869C399.162 189.261 399.307 188.682 399.34 188.132C399.369 187.573 399.281 187.053 399.077 186.572C398.866 186.089 398.533 185.658 398.079 185.279L399.671 183.262C400.351 183.762 400.87 184.391 401.226 185.148C401.576 185.903 401.742 186.746 401.725 187.675C401.702 188.602 401.474 189.576 401.042 190.596Z" fill="#F5F5F5"/>
<path d="M406.501 181.234C405.742 182.567 404.759 183.564 403.551 184.227C402.344 184.889 401.014 185.215 399.563 185.206C398.111 185.196 396.642 184.853 395.156 184.175C393.644 183.485 392.461 182.61 391.606 181.552C390.749 180.484 390.266 179.323 390.159 178.069C390.048 176.805 390.358 175.531 391.089 174.248C391.658 173.248 392.365 172.435 393.209 171.81C394.054 171.184 394.971 170.775 395.961 170.581C396.95 170.387 397.945 170.441 398.946 170.742L397.702 172.927C396.928 172.784 396.117 172.88 395.267 173.215C394.413 173.541 393.713 174.185 393.165 175.148C392.68 176 392.487 176.853 392.587 177.707C392.683 178.552 393.05 179.345 393.686 180.087C394.319 180.819 395.198 181.441 396.322 181.954C397.472 182.479 398.572 182.763 399.622 182.807C400.675 182.844 401.619 182.653 402.452 182.232C403.289 181.806 403.954 181.16 404.446 180.296C404.769 179.728 404.959 179.166 405.016 178.609C405.073 178.051 404.999 177.524 404.794 177.026C404.589 176.528 404.254 176.087 403.788 175.704L405.032 173.519C405.841 174.044 406.458 174.71 406.885 175.519C407.309 176.319 407.501 177.211 407.461 178.196C407.418 179.172 407.098 180.185 406.501 181.234Z" fill="#F5F5F5"/>
<path d="M398.643 163.912L400.498 164.96L395.609 171.888L393.753 170.84L398.643 163.912ZM391.765 166.893L393.215 164.839L406.795 172.509C407.413 172.859 407.936 173.036 408.364 173.043C408.79 173.04 409.15 172.935 409.443 172.727C409.735 172.51 409.987 172.251 410.2 171.949C410.36 171.723 410.478 171.53 410.556 171.371C410.628 171.209 410.685 171.079 410.728 170.981L412.989 171.674C412.946 171.845 412.865 172.071 412.744 172.352C412.63 172.636 412.438 172.97 412.168 173.353C411.758 173.933 411.224 174.427 410.565 174.833C409.91 175.234 409.181 175.464 408.379 175.522C407.581 175.575 406.767 175.367 405.939 174.899L391.765 166.893Z" fill="#F5F5F5"/>
<path d="M402.338 155.354L400.507 153.891L412.084 142.326L413.915 143.79L409.061 148.639L424.272 160.8L422.402 162.667L407.192 150.506L402.338 155.354Z" fill="#F5F5F5"/>
<path d="M432.893 154.796C431.735 155.712 430.471 156.267 429.101 156.46C427.737 156.648 426.365 156.487 424.984 155.978C423.609 155.464 422.327 154.606 421.136 153.406C419.936 152.196 419.13 150.948 418.719 149.662C418.314 148.372 418.298 147.133 418.672 145.947C419.051 144.756 419.82 143.702 420.979 142.785C422.137 141.869 423.399 141.316 424.763 141.128C426.132 140.935 427.507 141.098 428.887 141.617C430.272 142.132 431.565 142.995 432.766 144.205C433.956 145.405 434.752 146.647 435.152 147.933C435.558 149.214 435.571 150.45 435.192 151.641C434.818 152.827 434.052 153.879 432.893 154.796ZM431.303 153.192C432.183 152.496 432.704 151.719 432.867 150.861C433.03 150.003 432.918 149.133 432.531 148.252C432.143 147.37 431.564 146.541 430.794 145.765C430.024 144.988 429.17 144.373 428.231 143.918C427.293 143.463 426.335 143.254 425.357 143.29C424.379 143.326 423.449 143.692 422.569 144.389C421.689 145.085 421.17 145.865 421.012 146.728C420.854 147.59 420.972 148.465 421.364 149.352C421.756 150.238 422.338 151.07 423.108 151.846C423.878 152.623 424.73 153.236 425.663 153.686C426.596 154.135 427.55 154.339 428.523 154.298C429.496 154.257 430.423 153.889 431.303 153.192Z" fill="#F5F5F5"/>
<path d="M447.935 129.049C447.331 128.56 446.703 128.169 446.05 127.874C445.399 127.57 444.729 127.372 444.04 127.28C443.358 127.185 442.666 127.203 441.964 127.333C441.262 127.464 440.563 127.713 439.865 128.081C438.722 128.684 437.867 129.511 437.3 130.561C436.733 131.612 436.532 132.824 436.698 134.199C436.864 135.574 437.468 137.049 438.512 138.623C439.557 140.197 440.717 141.379 441.995 142.167C443.272 142.955 444.573 143.376 445.896 143.428C447.22 143.481 448.479 143.192 449.672 142.562C450.778 141.979 451.604 141.243 452.151 140.355C452.701 139.458 452.941 138.477 452.87 137.411C452.802 136.337 452.399 135.243 451.661 134.13L452.471 133.894L446.667 136.957L445.372 135.004L452.721 131.126L454.016 133.079C455.009 134.576 455.534 136.058 455.589 137.522C455.651 138.984 455.291 140.333 454.508 141.569C453.727 142.796 452.571 143.813 451.038 144.622C449.33 145.524 447.577 145.937 445.781 145.862C443.991 145.784 442.271 145.237 440.622 144.221C438.98 143.202 437.523 141.734 436.251 139.816C435.297 138.378 434.644 136.977 434.291 135.613C433.94 134.24 433.872 132.949 434.088 131.741C434.304 130.532 434.784 129.44 435.528 128.464C436.271 127.489 437.262 126.674 438.499 126.021C439.517 125.484 440.562 125.129 441.633 124.955C442.707 124.772 443.765 124.761 444.805 124.923C445.848 125.076 446.843 125.394 447.79 125.877C448.734 126.354 449.586 126.987 450.347 127.776L447.935 129.049Z" fill="#F5F5F5"/>
<path d="M462.085 140.559C460.708 141.094 459.345 141.247 457.997 141.019C456.655 140.789 455.415 140.219 454.277 139.309C453.146 138.398 452.209 137.182 451.466 135.664C450.717 134.133 450.351 132.684 450.369 131.318C450.393 129.95 450.767 128.75 451.491 127.717C452.221 126.682 453.275 125.897 454.652 125.362C456.029 124.827 457.389 124.675 458.73 124.906C460.079 125.133 461.32 125.707 462.455 126.625C463.596 127.541 464.541 128.764 465.29 130.296C466.032 131.814 466.39 133.254 466.363 134.616C466.342 135.975 465.967 137.173 465.236 138.208C464.513 139.241 463.462 140.024 462.085 140.559ZM461.093 138.53C462.139 138.124 462.873 137.531 463.296 136.752C463.718 135.973 463.886 135.1 463.798 134.132C463.711 133.164 463.427 132.188 462.946 131.206C462.466 130.223 461.856 129.371 461.116 128.648C460.377 127.925 459.541 127.434 458.61 127.173C457.679 126.912 456.691 126.985 455.644 127.391C454.598 127.797 453.866 128.393 453.446 129.178C453.027 129.964 452.862 130.844 452.953 131.818C453.044 132.793 453.329 133.771 453.81 134.754C454.29 135.736 454.899 136.586 455.635 137.302C456.371 138.018 457.204 138.503 458.132 138.758C459.06 139.012 460.047 138.937 461.093 138.53Z" fill="#F5F5F5"/>
<path d="M474 137.154L468.499 116.041L475.971 114.505C477.459 114.199 478.754 114.201 479.853 114.51C480.951 114.813 481.847 115.342 482.542 116.097C483.236 116.846 483.716 117.735 483.985 118.766C484.221 119.673 484.253 120.456 484.08 121.114C483.914 121.771 483.611 122.326 483.172 122.778C482.74 123.229 482.239 123.6 481.67 123.891L481.724 124.097C482.388 124.004 483.105 124.095 483.873 124.372C484.642 124.648 485.349 125.126 485.994 125.804C486.64 126.482 487.108 127.378 487.398 128.491C487.674 129.55 487.678 130.552 487.412 131.497C487.145 132.443 486.551 133.271 485.629 133.982C484.708 134.692 483.405 135.221 481.722 135.567L474 137.154ZM475.997 134.354L481.131 133.299C482.821 132.951 483.937 132.382 484.478 131.59C485.025 130.789 485.177 129.925 484.936 128.998C484.749 128.283 484.393 127.661 483.867 127.132C483.339 126.596 482.686 126.216 481.91 125.992C481.131 125.761 480.276 125.741 479.344 125.933L474.084 127.014L475.997 134.354ZM473.504 124.787L478.304 123.8C479.084 123.64 479.747 123.345 480.294 122.913C480.848 122.481 481.238 121.952 481.464 121.326C481.696 120.699 481.716 120.014 481.522 119.272C481.281 118.344 480.749 117.625 479.926 117.113C479.102 116.595 477.981 116.481 476.562 116.773L471.678 117.777L473.504 124.787Z" fill="#F5F5F5"/>
<path d="M491.243 134.992C490.212 135.096 489.25 134.997 488.359 134.694C487.467 134.385 486.726 133.885 486.136 133.195C485.544 132.499 485.18 131.622 485.043 130.566C484.923 129.636 485.009 128.864 485.301 128.249C485.593 127.627 486.025 127.12 486.597 126.727C487.169 126.334 487.815 126.019 488.536 125.782C489.263 125.537 489.998 125.327 490.742 125.152C491.714 124.926 492.504 124.75 493.111 124.624C493.723 124.491 494.161 124.329 494.422 124.139C494.691 123.947 494.799 123.651 494.747 123.25L494.736 123.165C494.601 122.123 494.21 121.342 493.563 120.822C492.923 120.301 492.027 120.099 490.875 120.215C489.681 120.336 488.778 120.691 488.167 121.281C487.557 121.871 487.152 122.475 486.953 123.095L484.469 122.489C484.765 121.46 485.231 120.635 485.866 120.015C486.508 119.386 487.235 118.92 488.048 118.617C488.867 118.306 489.686 118.109 490.505 118.026C491.028 117.974 491.637 117.976 492.332 118.035C493.033 118.085 493.726 118.269 494.411 118.585C495.104 118.9 495.712 119.42 496.235 120.145C496.759 120.87 497.104 121.877 497.271 123.166L498.656 133.858L496.155 134.11L495.87 131.913L495.743 131.926C495.619 132.295 495.385 132.7 495.041 133.142C494.698 133.583 494.215 133.978 493.595 134.326C492.974 134.674 492.19 134.896 491.243 134.992ZM491.335 132.713C492.324 132.613 493.133 132.336 493.761 131.88C494.396 131.423 494.847 130.871 495.114 130.223C495.388 129.575 495.481 128.912 495.394 128.236L495.098 125.954C495.008 126.092 494.79 126.231 494.443 126.373C494.103 126.508 493.704 126.637 493.248 126.762C492.798 126.879 492.357 126.987 491.927 127.088C491.502 127.181 491.158 127.258 490.894 127.321C490.255 127.471 489.665 127.669 489.124 127.917C488.589 128.156 488.173 128.48 487.875 128.888C487.584 129.289 487.479 129.806 487.561 130.44C487.673 131.306 488.08 131.929 488.78 132.308C489.487 132.679 490.338 132.814 491.335 132.713Z" fill="#F5F5F5"/>
<path d="M504.311 134.594C502.777 134.602 501.452 134.247 500.337 133.529C499.221 132.811 498.359 131.818 497.75 130.55C497.14 129.282 496.827 127.831 496.811 126.198C496.794 124.536 497.085 123.068 497.683 121.793C498.288 120.511 499.137 119.509 500.231 118.785C501.331 118.055 502.62 117.685 504.097 117.677C505.248 117.671 506.287 117.878 507.215 118.299C508.142 118.72 508.905 119.312 509.502 120.076C510.099 120.84 510.474 121.733 510.626 122.755L508.112 122.769C507.913 122.024 507.48 121.366 506.814 120.794C506.154 120.216 505.271 119.929 504.163 119.935C503.183 119.941 502.326 120.201 501.592 120.717C500.866 121.225 500.301 121.942 499.899 122.867C499.503 123.786 499.312 124.863 499.324 126.099C499.337 127.363 499.547 128.462 499.954 129.398C500.368 130.333 500.944 131.058 501.681 131.572C502.424 132.086 503.294 132.341 504.288 132.335C504.941 132.332 505.533 132.215 506.063 131.985C506.594 131.754 507.042 131.425 507.407 130.997C507.772 130.569 508.029 130.056 508.179 129.459L510.694 129.445C510.561 130.411 510.218 131.283 509.665 132.06C509.119 132.831 508.39 133.445 507.478 133.905C506.574 134.357 505.518 134.587 504.311 134.594Z" fill="#F5F5F5"/>
<path d="M511.941 128.753L512.236 125.657L512.745 125.703L520.667 119.098L523.766 119.376L515.331 126.362L515.118 126.343L511.941 128.753ZM508.958 134.474L511.328 112.785L513.832 113.01L511.462 134.699L508.958 134.474ZM519.315 135.403L513.827 126.783L515.8 125.206L522.498 135.689L519.315 135.403Z" fill="#F5F5F5"/>
</g>
<path d="M855.719 335.426V299.205L1015.52 46.3636H1041.8V102.472H1024.04L903.304 293.523V296.364H1118.5V335.426H855.719ZM1026.88 410V324.418V307.55V46.3636H1068.79V410H1026.88Z" fill="black"/>
<defs>
<filter id="filter0_d_2_150" x="346" y="91.5" width="460" height="286" filterUnits="userSpaceOnUse" color-interpolation-filters="sRGB">
<feFlood flood-opacity="0" result="BackgroundImageFix"/>
<feColorMatrix in="SourceAlpha" type="matrix" values="0 0 0 0 0 0 0 0 0 0 0 0 0 0 0 0 0 0 127 0" result="hardAlpha"/>
<feOffset dy="6"/>
<feGaussianBlur stdDeviation="7.5"/>
<feComposite in2="hardAlpha" operator="out"/>
<feColorMatrix type="matrix" values="0 0 0 0 0 0 0 0 0 0 0 0 0 0 0 0 0 0 0.7 0"/>
<feBlend mode="normal" in2="BackgroundImageFix" result="effect1_dropShadow_2_150"/>
<feBlend mode="normal" in="SourceGraphic" in2="effect1_dropShadow_2_150" result="shape"/>
</filter>
</defs>
</svg>
